<svg version="1.1" id="Слой_1" width="501.4" height="450.6" xmlns="http://www.w3.org/2000/svg" xmlns:xlink="http://www.w3.org/1999/xlink" x="0px" y="0px"
	 viewBox="0 0 433 451" style="enable-background:new 0 0 433 451;" xml:space="preserve">
<style type="text/css">
	.st0{fill:#C4C4C4;filter:url(#Adobe_OpacityMaskFilter);}
	.st1{mask:url(#mask0);}
	.st2{opacity:0.7;}
	.st3{fill:#F8FBF8;}
	.st4{fill:#FAFBF8;fill-opacity:0.8;}
	.st5{opacity:0.7;fill:#F8FBF8;enable-background:new    ;}
</style>
<defs>
	<filter id="Adobe_OpacityMaskFilter" filterUnits="userSpaceOnUse" x="0" y="0.5" width="501.4" height="450.6">
		<feColorMatrix  type="matrix" values="1 0 0 0 0  0 1 0 0 0  0 0 1 0 0  0 0 0 1 0"/>
	</filter>
</defs>
<mask maskUnits="userSpaceOnUse" x="0" y="0.5" width="501.4" height="450.6" id="mask0">
	<rect class="st0" width="433" height="451"/>
</mask>
<g class="st1">
	<g class="st2">
		<path class="st3" d="M0,451h113l-44.7-79.9L0,451z"/>
		<path class="st4" d="M164.2,451.1l-44.7-79.9l84.1-82.1L164.2,451.1z"/>
		<path class="st3" d="M185,450.6h102.8l-85-73.1L185,450.6z"/>
		<path class="st5" d="M236,331l109,103.9l-84.6-14.2L236,331z"/>
		<path class="st3" d="M207,238.7l57.1-55.7l-43.2,106.6L207,238.7z"/>
		<path class="st4" d="M174,172.9l2.8-76.9l99.1,21.2L174,172.9z"/>
		<path class="st3" d="M390.8,451h110.6l-116.1-55.4L390.8,451z"/>
		<path class="st3" d="M391,360.8L282,143l103.5,162.4L391,360.8z"/>
		<path class="st4" d="M281.8,233.2l17.8,124.1l91.2,93.6L281.8,233.2z"/>
		<path class="st3" d="M362.8,0.5l-25.9,153l-31.5-49.5L362.8,0.5z"/>
		<path class="st4" d="M388.9,250.1l-22.4-73.5l82.6,73.5H388.9z"/>
		<path class="st5" d="M385,80.2l96.7,41.5l-82.6,4.8L385,80.2z"/>
	</g>
</g>
</svg>
