<svg version="1.1" xmlns="http://www.w3.org/2000/svg" xmlns:xlink="http://www.w3.org/1999/xlink" x="0px" y="0px"
	 viewBox="0 0 2500 711" style="enable-background:new 0 0 2500 711;" xml:space="preserve">
<g>
	<defs>
		<rect id="main-banner_SVGID_1_" width="2500" height="711"/>
	</defs>
	<clipPath id="main-banner_SVGID_2_">
		<use xlink:href="#main-banner_SVGID_1_"  style="overflow:visible;"/>
	</clipPath>
	<g class="st0" style="clip-path:url(#main-banner_SVGID_2_);">
		<g>
			<path class="st1" style="fill:#373C4A;" d="M1768.1700439-158H2500v869h-841.8299561L1768.1700439-158z"/>
		</g>
		<g>
			<defs>
				<rect id="main-banner_SVGID_3_" x="1202.6700439" width="957" height="500"/>
			</defs>
			<clipPath id="main-banner_SVGID_4_">
				<use xlink:href="#main-banner_SVGID_3_"  style="overflow:visible;"/>
			</clipPath>
			<g style="clip-path:url(#main-banner_SVGID_4_);">
					<image class="js-main-banner-image" style="overflow:visible;" width="957" height="500" xlink:href="" transform="matrix(1 0 0 1 1202.6700439 0)">
				</image>
			</g>
		</g>
		<g>
			<path class="st2" style="fill:#F8FBF8;" d="M1228.6719971,763h-404v-869h513.9980469L1228.6719971,763z"/>
		</g>
		<g class="st3" style="opacity:0.5; enable-background:new;">
			<path class="st4" style="fill:#FFFFFF;" d="M1250.6970215,510h433.0029297l77.9700928-616h-433L1250.6970215,510z"/>
		</g>
		<g>
			<path class="st6" style="fill:#FAFBF8;" d="M1646.6700439,763h10l110-869h-10L1646.6700439,763z"/>
		</g>
		<g class="st7" style="opacity:0.15;enable-background:new;">
			
				<rect x="1585.1143799" y="610" transform="matrix(0.1249962 -0.9921572 0.9921572 0.1249962 869.9118652 2207.3835449)" class="st4" style="fill:#FFFFFF;" width="202.611084" height="1.0000305"/>
		</g>
		<g class="st8" style="opacity:0.1;enable-background:new;">
			
				<rect x="1596.1143799" y="610.25" transform="matrix(0.1249962 -0.9921572 0.9921572 0.1249962 879.5369263 2218.2973633)" class="st4" style="fill:#FFFFFF;" width="202.611084" height="0.5000153"/>
		</g>
		<g>
			<path class="st5" style="fill:#7AA95D;" d="M1689.9100342,500h469.7598877v10h-470.9998779L1689.9100342,500z"/>
		</g>
	</g>
</g>
</svg>
