<svg width="33" height="57" viewBox="0 0 33 57" fill="none" xmlns="http://www.w3.org/2000/svg">
<g clip-path="url(#clip0)">
<path d="M4.0861 52.9016V4.0975C4.0861 2.20613 5.62898 0.658691 7.51478 0.658691H4.0861C2.20029 0.658691 0.65741 2.20613 0.65741 4.0975V52.9016C0.65741 54.7929 2.20029 56.3405 4.0861 56.3405H7.51478C5.62898 56.3405 4.0861 54.7929 4.0861 52.9016Z" fill="#E4EFD2"/>
<path d="M28.9139 56.9998H4.08608C1.83265 56.9998 0 55.1617 0 52.9016V4.09789C0 1.83782 1.83265 -0.000244141 4.08608 -0.000244141H28.9139C31.1673 -0.000244141 33 1.83782 33 4.09789V52.9016C33 55.1617 31.1673 56.9998 28.9139 56.9998ZM4.08608 1.31841C2.55812 1.31841 1.31478 2.56543 1.31478 4.09789V52.9016C1.31478 54.4341 2.55812 55.6811 4.08608 55.6811H28.9139C30.4419 55.6811 31.6852 54.4341 31.6852 52.9016V4.09789C31.6852 2.56543 30.4419 1.31841 28.9139 1.31841H4.08608Z" fill="#72788E"/>
<path d="M32.3426 8.78369H0.657394V10.1023H32.3426V8.78369Z" fill="#72788E"/>
<path d="M20.5118 6.09502H12.487C12.1243 6.09502 11.8296 5.7995 11.8296 5.4357C11.8296 5.07189 12.1243 4.77637 12.487 4.77637H20.5118C20.8746 4.77637 21.1692 5.07189 21.1692 5.4357C21.1692 5.7995 20.8746 6.09502 20.5118 6.09502Z" fill="#72788E"/>
<path d="M13.3766 37.3497H5.35174C4.989 37.3497 4.69435 37.0541 4.69435 36.6903C4.69435 36.3265 4.989 36.031 5.35174 36.031H13.3766C13.7393 36.031 14.034 36.3265 14.034 36.6903C14.034 37.0541 13.7393 37.3497 13.3766 37.3497Z" fill="#72788E"/>
<path d="M20.2339 41.4266H5.35174C4.989 41.4266 4.69435 41.131 4.69435 40.7672C4.69435 40.4034 4.989 40.1079 5.35174 40.1079H20.2339C20.5967 40.1079 20.8913 40.4034 20.8913 40.7672C20.8913 41.131 20.5967 41.4266 20.2339 41.4266Z" fill="#72788E"/>
<path d="M20.2339 45.5023H5.35174C4.989 45.5023 4.69435 45.2067 4.69435 44.8429C4.69435 44.4791 4.989 44.1836 5.35174 44.1836H20.2339C20.5967 44.1836 20.8913 44.4791 20.8913 44.8429C20.8913 45.2067 20.5967 45.5023 20.2339 45.5023Z" fill="#72788E"/>
<path d="M32.3426 50.7031H0.657394V52.0218H32.3426V50.7031Z" fill="#72788E"/>
<path d="M20.8701 31.2467C20.7965 31.2467 20.7228 31.2455 20.6469 31.2411C19.5944 31.184 18.5598 30.8851 17.293 30.2705C15.0586 29.1814 13.102 27.6467 11.4758 25.7067C10.1711 24.1452 9.24139 22.587 8.63423 20.9437C8.36078 20.2049 8.05831 19.2176 8.13979 18.1228C8.1956 17.3974 8.48132 16.784 8.98692 16.2993C9.24251 16.0575 9.48693 15.8112 9.73136 15.5638L10.2526 15.0444C11.064 14.2384 12.1634 14.2407 12.9815 15.0455C13.3263 15.3836 13.669 15.7306 14.0116 16.0787L15.005 17.075C15.8421 17.9246 15.8432 19.0194 15.0072 19.8623L14.6713 20.2004C14.4246 20.4489 14.1779 20.6974 13.9279 20.9437C14.1478 21.4105 14.4492 21.8728 14.8666 22.3866C15.8242 23.5664 16.8064 24.4642 17.8678 25.1314C18.0073 25.2176 18.158 25.2914 18.3087 25.3653C18.341 25.3821 18.3734 25.3978 18.4058 25.4146C18.7205 25.0911 19.0408 24.772 19.36 24.4541L19.494 24.3209C20.3132 23.5082 21.4114 23.5093 22.2262 24.3198C22.907 24.997 23.5856 25.6765 24.2609 26.3616C25.0812 27.1877 25.0779 28.3037 24.2531 29.1355L23.8591 29.525C23.6079 29.7702 23.3568 30.0142 23.1258 30.275C22.5499 30.9209 21.792 31.2467 20.8701 31.2467ZM11.6142 15.7642C11.468 15.7642 11.3218 15.8381 11.1734 15.9847L10.6644 16.4929C10.41 16.7504 10.1555 17.0067 9.89208 17.2552C9.6231 17.5138 9.48135 17.8217 9.4501 18.2235C9.3876 19.0608 9.63984 19.8724 9.86641 20.4847C10.42 21.9847 11.2761 23.4153 12.4826 24.8593C13.9882 26.656 15.7996 28.0776 17.8656 29.084C18.9672 29.619 19.8478 29.8776 20.7183 29.9246C21.3556 29.9649 21.7898 29.797 22.1447 29.3985C22.3947 29.1153 22.6682 28.8478 22.9416 28.5802L23.32 28.2064C23.637 27.8862 23.6392 27.6041 23.3278 27.2896C22.6548 26.6079 21.9784 25.9306 21.2998 25.2556C21.0007 24.9579 20.7217 24.959 20.4181 25.2567L20.2864 25.3888C19.9114 25.7627 19.5364 26.1366 19.1692 26.5172C18.8466 26.8508 18.4325 26.9202 18.0363 26.7064C17.9314 26.6493 17.8287 26.5978 17.7261 26.5474C17.5385 26.4545 17.3522 26.3605 17.1747 26.2508C15.9838 25.5041 14.8967 24.5134 13.8476 23.2194C13.2806 22.5209 12.89 21.8896 12.6187 21.2347C12.4513 20.8508 12.525 20.469 12.833 20.1724C13.1377 19.8769 13.438 19.5735 13.7393 19.2713L14.0764 18.9321C14.4 18.6052 14.3989 18.3355 14.0697 18.0019L13.0797 17.0078C12.7404 16.6642 12.4022 16.3217 12.0607 15.987C11.91 15.8381 11.7627 15.7642 11.6142 15.7642ZM13.7471 21.1205C13.746 21.1205 13.746 21.1217 13.746 21.1217C13.746 21.1217 13.746 21.1205 13.7471 21.1205ZM13.8275 20.7164C13.8275 20.7176 13.8286 20.7176 13.8286 20.7187C13.8286 20.7176 13.8275 20.7176 13.8275 20.7164Z" fill="#7AA95D"/>
</g>
<defs>
<clipPath id="clip0">
<rect width="33" height="57" fill="white" transform="translate(0 -0.000244141)"/>
</clipPath>
</defs>
</svg>
