<svg width="40" height="57" viewBox="0 0 40 57" fill="none" xmlns="http://www.w3.org/2000/svg">
<path d="M4.17949 52.8684V8.28954C4.17949 6.38278 5.75772 4.82275 7.68674 4.82275H4.17949C2.25048 4.82275 0.672241 6.38278 0.672241 8.28954V52.8684C0.672241 54.7751 2.25048 56.3352 4.17949 56.3352H7.68674C5.75772 56.3352 4.17949 54.7751 4.17949 52.8684Z" fill="#E4EFD2"/>
<path d="M36.9894 56.9999H3.01062C1.35061 56.9999 0 55.6649 0 54.024V7.13433C0 5.49348 1.35061 4.15845 3.01062 4.15845H36.9894C38.6494 4.15845 40 5.49348 40 7.13433V54.024C40 55.6649 38.6494 56.9999 36.9894 56.9999ZM3.01062 5.48783C2.09156 5.48783 1.3449 6.22588 1.3449 7.13433V54.024C1.3449 54.9324 2.09156 55.6705 3.01062 55.6705H36.9894C37.9084 55.6705 38.6551 54.9324 38.6551 54.024V7.13433C38.6551 6.22588 37.9084 5.48783 36.9894 5.48783H3.01062Z" fill="#72788E"/>
<path d="M20 56.9998H9.88699C9.51594 56.9998 9.21454 56.7019 9.21454 56.3351V46.3388C9.21454 45.972 9.51594 45.6741 9.88699 45.6741H20C20.3711 45.6741 20.6725 45.972 20.6725 46.3388V56.3351C20.6725 56.7019 20.3711 56.9998 20 56.9998ZM10.5594 55.6704H19.3276V47.0035H10.5594V55.6704Z" fill="#7AA95D"/>
<path d="M30.1119 56.9998H20C19.629 56.9998 19.3276 56.7019 19.3276 56.3351V46.3388C19.3276 45.972 19.629 45.6741 20 45.6741H30.1119C30.483 45.6741 30.7844 45.972 30.7844 46.3388V56.3351C30.7844 56.7019 30.483 56.9998 30.1119 56.9998ZM20.6725 55.6704H29.4395V47.0035H20.6725V55.6704Z" fill="#7AA95D"/>
<path d="M30.1119 47.0036H20C19.629 47.0036 19.3276 46.7056 19.3276 46.3389V36.3436C19.3276 35.9769 19.629 35.679 20 35.679H30.1119C30.483 35.679 30.7844 35.9769 30.7844 36.3436V46.3389C30.7844 46.7056 30.483 47.0036 30.1119 47.0036ZM20.6725 45.6742H29.4395V37.0083H20.6725V45.6742Z" fill="#7AA95D"/>
<path d="M26.3615 50.2989H23.7505C23.3794 50.2989 23.078 50.0009 23.078 49.6342C23.078 49.2674 23.3794 48.9695 23.7505 48.9695H26.3615C26.7325 48.9695 27.0339 49.2674 27.0339 49.6342C27.0339 50.0009 26.7325 50.2989 26.3615 50.2989Z" fill="#7AA95D"/>
<path d="M26.3615 39.9266H23.7505C23.3794 39.9266 23.078 39.6286 23.078 39.2619C23.078 38.8951 23.3794 38.5972 23.7505 38.5972H26.3615C26.7325 38.5972 27.0339 38.8951 27.0339 39.2619C27.0339 39.6286 26.7325 39.9266 26.3615 39.9266Z" fill="#7AA95D"/>
<path d="M16.2496 50.2989H13.6374C13.2664 50.2989 12.965 50.0009 12.965 49.6342C12.965 49.2674 13.2664 48.9695 13.6374 48.9695H16.2496C16.6206 48.9695 16.922 49.2674 16.922 49.6342C16.922 50.0009 16.6206 50.2989 16.2496 50.2989Z" fill="#7AA95D"/>
<path d="M16.8684 22.2847H5.34878C4.97773 22.2847 4.67633 21.9867 4.67633 21.62V10.2333C4.67633 9.86653 4.97773 9.5686 5.34878 9.5686H16.8684C17.2394 9.5686 17.5408 9.86653 17.5408 10.2333V21.62C17.5408 21.9867 17.2394 22.2847 16.8684 22.2847ZM6.02123 20.9553H16.1959V10.898H6.02123V20.9553Z" fill="#72788E"/>
<path d="M34.6512 57H5.34878C4.97773 57 4.67633 56.702 4.67633 56.3353V32.6535C4.67633 32.2867 4.97773 31.9888 5.34878 31.9888H34.6512C35.0223 31.9888 35.3237 32.2867 35.3237 32.6535V56.3353C35.3237 56.702 35.0223 57 34.6512 57ZM6.02123 55.6706H33.9788V33.3182H6.02123V55.6706Z" fill="#72788E"/>
<path d="M34.6512 33.3182H5.34878C4.97773 33.3182 4.67633 33.0203 4.67633 32.6535V29.9643C4.67633 29.5975 4.97773 29.2996 5.34878 29.2996H34.6512C35.0223 29.2996 35.3237 29.5975 35.3237 29.9643V32.6535C35.3237 33.0203 35.0223 33.3182 34.6512 33.3182ZM6.02123 31.9888H33.9788V30.6289H6.02123V31.9888Z" fill="#72788E"/>
<path d="M34.6512 30.629H5.34878C4.97773 30.629 4.67633 30.3311 4.67633 29.9643V27.275C4.67633 26.9083 4.97773 26.6104 5.34878 26.6104H34.6512C35.0223 26.6104 35.3237 26.9083 35.3237 27.275V29.9643C35.3237 30.3311 35.0223 30.629 34.6512 30.629ZM6.02123 29.2996H33.9788V27.9397H6.02123V29.2996Z" fill="#72788E"/>
<path d="M34.6512 22.2847H23.1305C22.7595 22.2847 22.4581 21.9867 22.4581 21.62V10.2333C22.4581 9.86653 22.7595 9.5686 23.1305 9.5686H34.6512C35.0223 9.5686 35.3237 9.86653 35.3237 10.2333V21.62C35.3237 21.9867 35.0223 22.2847 34.6512 22.2847ZM23.803 20.9553H33.9788V10.898H23.803V20.9553Z" fill="#72788E"/>
<path d="M9.88699 5.48795H3.45932C3.08827 5.48795 2.78687 5.19003 2.78687 4.82326V0.664693C2.78687 0.297927 3.08827 0 3.45932 0H9.88699C10.258 0 10.5594 0.297927 10.5594 0.664693V4.82326C10.5594 5.19003 10.258 5.48795 9.88699 5.48795ZM4.13177 4.15857H9.21454V1.32939H4.13177V4.15857Z" fill="#72788E"/>
<path d="M16.2496 5.48785H9.82077C9.44972 5.48785 9.14832 5.18992 9.14832 4.82315V2.74331C9.14832 2.37654 9.44972 2.07861 9.82077 2.07861H16.2496C16.6206 2.07861 16.922 2.37654 16.922 2.74331V4.82315C16.922 5.18992 16.6206 5.48785 16.2496 5.48785ZM10.4932 4.15846H15.5771V3.408H10.4932V4.15846Z" fill="#72788E"/>
<path d="M11.781 10.2334H10.4361V21.6201H11.781V10.2334Z" fill="#72788E"/>
<path d="M29.5627 10.3857H28.2178V21.6201H29.5627V10.3857Z" fill="#72788E"/>
</svg>
