<svg width="779" height="939" viewBox="0 0 779 939" fill="none" xmlns="http://www.w3.org/2000/svg">
<mask id="mask0" mask-type="alpha" maskUnits="userSpaceOnUse" x="0" y="0" width="779" height="939">
<rect width="779" height="939" fill="#C4C4C4"/>
</mask>
<g mask="url(#mask0)">
<g opacity="0.1">
<path fill-rule="evenodd" clip-rule="evenodd" d="M776.001 774.98L595.027 646.934L656.167 774.98H776.001Z" fill="#F5F5F7"/>
<path fill-rule="evenodd" clip-rule="evenodd" d="M754.083 932.606H578L647.7 808L754.083 932.606Z" fill="#F5F5F7"/>
<path opacity="0.7" d="M436.244 837.499L266.289 999.445L398.116 977.268L436.244 837.499Z" fill="#F5F5F7"/>
<path d="M552.955 593.849L464.001 507L531.3 673.231L552.955 593.849Z" fill="#F5F5F7"/>
<path d="M657.964 489.876L653.529 370L499 403.027L657.964 489.876Z" fill="#E9EBEF" fill-opacity="0.4"/>
<path d="M169.182 252.633L198.654 169.615L58.0854 138.448L169.182 252.633Z" fill="#E9EBEF" fill-opacity="0.4"/>
<path d="M845.943 576.724L707.001 507L711.436 626.876L845.943 576.724Z" fill="#F5F5F7"/>
<path d="M233.215 990.435L93.4615 1091.41L189.616 915.475L233.215 990.435Z" fill="#F5F5F7"/>
<path d="M265.237 783.776L435.206 444.274L273.797 697.482L265.237 783.776Z" fill="#F5F5F7"/>
<path d="M436.063 560.085L408.303 753.609L266.095 899.587L436.063 560.085Z" fill="#E9EBEF" fill-opacity="0.4"/>
<path d="M309.828 197.302L350.18 435.831L399.333 358.723L309.828 197.302Z" fill="#F5F5F7"/>
<path opacity="0.8" d="M160.647 622.26L51.6915 823.996L184.095 760.862L160.647 622.26Z" fill="#F5F5F7"/>
<path d="M351.043 114.958L210.762 0L302.472 138.118L351.043 114.958Z" fill="#E9EBEF" fill-opacity="0.4"/>
<path d="M269.182 586.403L304.132 471.869L175.438 586.403H269.182Z" fill="#E9EBEF" fill-opacity="0.4"/>
<path d="M210.31 449.793L0.000434185 564.327H81.6159L210.31 449.793Z" fill="#F5F5F7"/>
<path d="M801.001 0L570.001 67H659.646L801.001 0Z" fill="#F5F5F7"/>
<path opacity="0.7" d="M275.157 321.478L124.441 386.204L253.135 393.648L275.157 321.478Z" fill="#F5F5F7"/>
<path opacity="0.7" d="M800.717 211L650.001 275.726L778.694 283.17L800.717 211Z" fill="#F5F5F7"/>
<path d="M399.013 156.791L600.774 142.113L444.527 238.874L399.013 156.791Z" fill="#F5F5F7"/>
</g>
</g>
</svg>
