<svg version="1.1" id="Слой_1" xmlns="http://www.w3.org/2000/svg" xmlns:xlink="http://www.w3.org/1999/xlink" x="0px" y="0px"
	 viewBox="0 0 3500 413" style="enable-background:new 0 0 3500 413;" xml:space="preserve">
<path class="st0" style="opacity:0.4; fill:#F0F5EF; enable-background:new;" d="M1098.55396,181.47701L985.85999,59.9223C985.34802,59.3719,984.46399,59.4088,984,60L708.60358,411.02301
	c-0.62994,0.802-0.05774,1.97699,0.96307,1.97699l726.09802-0.37582c1.0321,0,1.60107-1.19901,0.94702-1.99701L1185.45996,101.915
	c-0.45898-0.561-1.30298-0.602-1.81494-0.088l-83.32703,79.68C1099.828,181.99899,1099.02698,181.985,1098.55396,181.47701z
	 M1175.63599,345.228l-144.24805-158.911c-0.96594-1.08101,0.42102-2.644,1.61206-1.817l109.74805,64.7
	c0.20691,0.144,0.36401,0.34801,0.44995,0.584l34.50098,94.20999C1178.16199,345.26001,1176.53394,346.23401,1175.63599,345.228z"/>
<path class="st1" fill="#fff" d="M1129.55396,214.47701L1015.04199,91.3903c-0.51196-0.5504-1.39502-0.5135-1.85901,0.0778l-250.91986,319.5549
	c-0.62994,0.802-0.05774,1.97699,0.96307,1.97699h674.54773c1.0321,0,1.60107-1.19901,0.94702-1.99701l-226.26099-276.08801
	c-0.45898-0.56099-1.30298-0.60199-1.81494-0.088l-79.32703,79.68001C1130.828,214.99899,1130.02698,214.985,1129.55396,214.47701z
	 M1302.63599,408.228l-165.30298-185.08c-0.96606-1.08099,0.42102-2.64499,1.61206-1.817l130.80298,90.86902
	c0.20691,0.14398,0.36401,0.34698,0.44995,0.58398l34.50098,94.20999C1305.16199,408.26001,1303.53394,409.23401,1302.63599,408.228
	z"/>
<path class="st1" fill="#fff" d="M1338,413h2162V0H1390.27808L1338,413z"/>
</svg>
