<svg width="649" height="352" viewBox="0 0 649 352" fill="none" xmlns="http://www.w3.org/2000/svg">
<mask id="mask0" mask-type="alpha" maskUnits="userSpaceOnUse" x="0" y="0" width="649" height="352">
<rect width="649" height="352" fill="#C4C4C4"/>
</mask>
<g mask="url(#mask0)">
<path opacity="0.4" fill-rule="evenodd" clip-rule="evenodd" d="M308.554 120.477L195.86 -1.07773C195.348 -1.62815 194.464 -1.59122 194 -1L-54.7369 317.023C-55.3668 317.825 -54.7946 319 -53.7738 319H620.774C621.806 319 622.375 317.801 621.721 317.003L395.46 40.9146C395.001 40.354 394.157 40.3132 393.645 40.827L310.318 120.507C309.828 120.999 309.027 120.985 308.554 120.477ZM385.636 284.228L241.388 125.317C240.422 124.236 241.809 122.673 243 123.5L352.748 188.2C352.955 188.344 353.112 188.548 353.198 188.784L387.699 282.994C388.162 284.26 386.534 285.234 385.636 284.228Z" fill="#F0F5EF"/>
<path fill-rule="evenodd" clip-rule="evenodd" d="M339.554 153.477L225.042 30.3903C224.53 29.8399 223.647 29.8768 223.183 30.4681L-27.7369 350.023C-28.3668 350.825 -27.7946 352 -26.7738 352H647.774C648.806 352 649.375 350.801 648.721 350.003L422.46 73.9146C422.001 73.354 421.157 73.3132 420.645 73.8269L341.318 153.507C340.828 153.999 340.027 153.985 339.554 153.477ZM512.636 347.228L347.333 162.148C346.367 161.067 347.754 159.503 348.945 160.331L479.748 251.2C479.955 251.344 480.112 251.547 480.198 251.784L514.699 345.994C515.162 347.26 513.534 348.234 512.636 347.228Z" fill="white"/>
</g>
</svg>
