<svg width="38" height="57" viewBox="0 0 38 57" fill="none" xmlns="http://www.w3.org/2000/svg">
<path d="M3.97068 21.4715V4.00797C3.97068 2.15805 5.47 0.644531 7.30257 0.644531H3.97068C2.13812 0.644531 0.638794 2.15805 0.638794 4.00797V21.4715C0.638794 23.3214 2.13812 24.835 3.97068 24.835H7.30257C5.47 24.835 3.97068 23.3214 3.97068 21.4715Z" fill="#E4EFD2"/>
<path d="M35.1399 25.4798H2.86009C1.28308 25.4798 0 24.1846 0 22.5926V2.88717C0 1.29523 1.28308 0 2.86009 0H35.1399C36.7169 0 38 1.29523 38 2.88717V22.5926C38 24.1846 36.7169 25.4798 35.1399 25.4798ZM2.86009 1.28976C1.98698 1.28976 1.27766 2.0058 1.27766 2.88717V22.5926C1.27766 23.474 1.98698 24.19 2.86009 24.19H35.1399C36.013 24.19 36.7223 23.474 36.7223 22.5926V2.88717C36.7223 2.0058 36.013 1.28976 35.1399 1.28976H2.86009Z" fill="#72788E"/>
<path d="M14.1323 6.53854H6.33512C5.98262 6.53854 5.69629 6.24949 5.69629 5.89366C5.69629 5.53782 5.98262 5.24878 6.33512 5.24878H14.1323C14.4848 5.24878 14.7711 5.53782 14.7711 5.89366C14.7711 6.24949 14.4848 6.53854 14.1323 6.53854Z" fill="#72788E"/>
<path d="M10.8005 12.0566H6.44254C6.09005 12.0566 5.80371 11.7676 5.80371 11.4117C5.80371 11.0559 6.09005 10.7668 6.44254 10.7668H10.8005C11.153 10.7668 11.4393 11.0559 11.4393 11.4117C11.4393 11.7676 11.153 12.0566 10.8005 12.0566Z" fill="#72788E"/>
<path d="M18.115 12.0566H13.7571C13.4046 12.0566 13.1182 11.7676 13.1182 11.4117C13.1182 11.0559 13.4046 10.7668 13.7571 10.7668H18.115C18.4675 10.7668 18.7538 11.0559 18.7538 11.4117C18.7538 11.7676 18.4675 12.0566 18.115 12.0566Z" fill="#72788E"/>
<path d="M25.4306 12.0566H21.0716C20.7191 12.0566 20.4327 11.7676 20.4327 11.4117C20.4327 11.0559 20.7191 10.7668 21.0716 10.7668H25.4306C25.7831 10.7668 26.0694 11.0559 26.0694 11.4117C26.0694 11.7676 25.7831 12.0566 25.4306 12.0566Z" fill="#72788E"/>
<path d="M32.7451 12.0566H28.3861C28.0336 12.0566 27.7473 11.7676 27.7473 11.4117C27.7473 11.0559 28.0336 10.7668 28.3861 10.7668H32.7451C33.0976 10.7668 33.384 11.0559 33.384 11.4117C33.384 11.7676 33.0976 12.0566 32.7451 12.0566Z" fill="#72788E"/>
<path d="M11.911 22.0703H6.33512C5.98262 22.0703 5.69629 21.7812 5.69629 21.4254C5.69629 21.0696 5.98262 20.7805 6.33512 20.7805H11.911C12.2635 20.7805 12.5499 21.0696 12.5499 21.4254C12.5499 21.7812 12.2635 22.0703 11.911 22.0703Z" fill="#72788E"/>
<path d="M20.3352 22.0703H14.7582C14.4057 22.0703 14.1193 21.7812 14.1193 21.4254C14.1193 21.0696 14.4057 20.7805 14.7582 20.7805H20.3352C20.6877 20.7805 20.974 21.0696 20.974 21.4254C20.974 21.7812 20.6877 22.0703 20.3352 22.0703Z" fill="#72788E"/>
<path d="M29.8959 18.8669H6.33512C5.98262 18.8669 5.69629 18.5779 5.69629 18.222C5.69629 17.8662 5.98262 17.5771 6.33512 17.5771H29.8959C30.2484 17.5771 30.5347 17.8662 30.5347 18.222C30.5347 18.5779 30.2484 18.8669 29.8959 18.8669Z" fill="#72788E"/>
<path d="M37.3612 56.9999H0.638829C0.286334 56.9999 0 56.7109 0 56.3551V48.5333C0 48.1775 0.286334 47.8884 0.638829 47.8884H37.3612C37.7137 47.8884 38 48.1775 38 48.5333V56.3551C38 56.7109 37.7137 56.9999 37.3612 56.9999ZM1.27766 55.7102H36.7223V49.1782H1.27766V55.7102Z" fill="#72788E"/>
<path d="M27.5781 54.9964H10.4208C10.0683 54.9964 9.78198 54.7073 9.78198 54.3515V50.537C9.78198 50.1811 10.0683 49.8921 10.4208 49.8921H27.5781C27.9306 49.8921 28.2169 50.1811 28.2169 50.537V54.3515C28.2169 54.7073 27.9306 54.9964 27.5781 54.9964ZM11.0596 53.7066H26.9392V51.1818H11.0596V53.7066Z" fill="#72788E"/>
<path d="M19 49.1782H9.39261C9.04012 49.1782 8.75378 48.8891 8.75378 48.5333V38.836C8.75378 38.4802 9.04012 38.1912 9.39261 38.1912H19C19.3525 38.1912 19.6388 38.4802 19.6388 38.836V48.5333C19.6388 48.8891 19.3525 49.1782 19 49.1782ZM10.0314 47.8884H18.3612V39.4809H10.0314V47.8884Z" fill="#7AA95D"/>
<path d="M28.6073 49.1782H19C18.6475 49.1782 18.3611 48.8891 18.3611 48.5333V38.836C18.3611 38.4802 18.6475 38.1912 19 38.1912H28.6073C28.9598 38.1912 29.2462 38.4802 29.2462 38.836V48.5333C29.2462 48.8891 28.9598 49.1782 28.6073 49.1782ZM19.6388 47.8884H27.9685V39.4809H19.6388V47.8884Z" fill="#7AA95D"/>
<path d="M28.6073 39.481H19C18.6475 39.481 18.3611 39.192 18.3611 38.8362V29.1378C18.3611 28.782 18.6475 28.4929 19 28.4929H28.6073C28.9598 28.4929 29.2462 28.782 29.2462 29.1378V38.8362C29.2462 39.192 28.9598 39.481 28.6073 39.481ZM19.6388 38.1913H27.9685V29.7827H19.6388V38.1913Z" fill="#7AA95D"/>
<path d="M25.0445 42.6779H22.5629C22.2104 42.6779 21.9241 42.3889 21.9241 42.0331C21.9241 41.6772 22.2104 41.3882 22.5629 41.3882H25.0445C25.397 41.3882 25.6833 41.6772 25.6833 42.0331C25.6833 42.3889 25.397 42.6779 25.0445 42.6779Z" fill="#7AA95D"/>
<path d="M25.0445 32.6152H22.5629C22.2104 32.6152 21.9241 32.3261 21.9241 31.9703C21.9241 31.6145 22.2104 31.3254 22.5629 31.3254H25.0445C25.397 31.3254 25.6833 31.6145 25.6833 31.9703C25.6833 32.3261 25.397 32.6152 25.0445 32.6152Z" fill="#7AA95D"/>
<path d="M15.4371 42.6779H12.9555C12.603 42.6779 12.3167 42.3889 12.3167 42.0331C12.3167 41.6772 12.603 41.3882 12.9555 41.3882H15.4371C15.7896 41.3882 16.0759 41.6772 16.0759 42.0331C16.0759 42.3889 15.7896 42.6779 15.4371 42.6779Z" fill="#7AA95D"/>
</svg>
