<?xml version="1.0" encoding="utf-8"?>
<!-- Generator: Adobe Illustrator 21.0.0, SVG Export Plug-In . SVG Version: 6.00 Build 0)  -->
<svg version="1.1" width="749" height="671" id="Слой_1" xmlns="http://www.w3.org/2000/svg" xmlns:xlink="http://www.w3.org/1999/xlink" x="0px" y="0px"
	 viewBox="0 0 645 665" style="enable-background:new 0 0 645 665;" xml:space="preserve">
<style type="text/css">
	.st0{fill:#C4C4C4;filter:url(#Adobe_OpacityMaskFilter);}
	.st1{mask:url(#mask0);}
	.st2{opacity:0.7;}
	.st3{fill:#FFFFFF;}
	.st4{opacity:0.7;fill:#FFFFFF;enable-background:new    ;}
	.st5{fill:#F0F5EF;}
	.st6{opacity:0.8;fill:#FFFFFF;enable-background:new    ;}
</style>
<defs>
	<filter id="Adobe_OpacityMaskFilter" filterUnits="userSpaceOnUse" x="0" y="0" width="749" height="670.4">
		<feColorMatrix  type="matrix" values="1 0 0 0 0  0 1 0 0 0  0 0 1 0 0  0 0 0 1 0"/>
	</filter>
</defs>
<mask maskUnits="userSpaceOnUse" x="0" y="0" width="749" height="670.4" id="mask0">
	<rect class="st0" width="645" height="665"/>
</mask>
<g class="st1">
	<g class="st2">
		<path class="st3" d="M749,544.7l-131.2-92.8l44.3,92.8H749z"/>
		<path class="st3" d="M739.3,635H611.6l50.5-90.3L739.3,635z"/>
		<path class="st3" d="M612,664.6H495.9l96-82.6L612,664.6z"/>
		<path class="st3" d="M77,380H0l63.7-55L77,380z"/>
		<path class="st4" d="M524,509L400.8,626.4l95.5-16.1L524,509z"/>
		<path class="st3" d="M568.1,449.9l-64.5-62.9l48.8,120.5L568.1,449.9z"/>
		<path class="st5" d="M166,292.3l-71.5,11.1l101,26.7L166,292.3z"/>
		<path class="st5" d="M611,335.9l-3.2-86.9l-112,23.9L611,335.9z"/>
		<path class="st3" d="M715.3,415.5L614.6,365l3.2,86.9L715.3,415.5z"/>
		<path class="st3" d="M354.1,632.5L235,670.4L341,571L354.1,632.5z"/>
		<path class="st3" d="M359.8,554.1L483,308L366,491.5L359.8,554.1z"/>
		<path class="st5" d="M503,342l-20.1,140.3L379.8,588.1L503,342z"/>
		<path class="st3" d="M411.1,126l29.2,172.9L476,243L411.1,126z"/>
		<path class="st6" d="M257,437l-79,146.2l96-45.8L257,437z"/>
		<path class="st5" d="M448,83.3L346.3,0l66.5,100.1L448,83.3z"/>
		<path class="st5" d="M381.7,408l25.3-83l-93.3,83H381.7z"/>
		<path class="st3" d="M318,318l-152.4,83h59.2L318,318z"/>
		<path class="st4" d="M386,216l-109.2,46.9l93.3,5.4L386,216z"/>
		<path class="st3" d="M475.8,96.6L622,86l-113.2,70.1L475.8,96.6z"/>
		<path class="st5" d="M62,462.3l114-8.3l-88.3,55L62,462.3z"/>
	</g>
</g>
</svg>
