<svg width="40" height="57" viewBox="0 0 40 57" fill="none" xmlns="http://www.w3.org/2000/svg">
<path d="M4.17946 52.9019V4.09774C4.17946 2.20637 5.75769 0.658936 7.68671 0.658936H4.17946C2.25044 0.658936 0.672211 2.20637 0.672211 4.09774V52.9019C0.672211 54.7932 2.25044 56.3407 4.17946 56.3407H7.68671C5.75769 56.3407 4.17946 54.7932 4.17946 52.9019Z" fill="#E4EFD2"/>
<path d="M36.9894 57H3.01062C1.35061 57 0 55.6757 0 54.0481V2.95187C0 1.32425 1.35061 0 3.01062 0H36.9894C38.6494 0 40 1.32425 40 2.95187V54.0481C40 55.6757 38.6494 57 36.9894 57ZM3.01062 1.31866C2.09156 1.31866 1.3449 2.05075 1.3449 2.95187V54.0481C1.3449 54.9493 2.09156 55.6813 3.01062 55.6813H36.9894C37.9084 55.6813 38.6551 54.9493 38.6551 54.0481V2.95187C38.6551 2.05075 37.9084 1.31866 36.9894 1.31866H3.01062Z" fill="#72788E"/>
<path d="M35.9196 6.68511H27.7109C27.3399 6.68511 27.0385 6.38959 27.0385 6.02578C27.0385 5.66198 27.3399 5.36646 27.7109 5.36646H35.9196C36.2906 5.36646 36.592 5.66198 36.592 6.02578C36.592 6.38959 36.2906 6.68511 35.9196 6.68511Z" fill="#72788E"/>
<path d="M35.9196 10.762H20.6964C20.3254 10.762 20.024 10.4665 20.024 10.1027C20.024 9.73888 20.3254 9.44336 20.6964 9.44336H35.9196C36.2907 9.44336 36.5921 9.73888 36.5921 10.1027C36.5921 10.4665 36.2907 10.762 35.9196 10.762Z" fill="#72788E"/>
<path d="M35.9196 14.8389H20.6964C20.3254 14.8389 20.024 14.5434 20.024 14.1796C20.024 13.8158 20.3254 13.5203 20.6964 13.5203H35.9196C36.2907 13.5203 36.5921 13.8158 36.5921 14.1796C36.5921 14.5434 36.2907 14.8389 35.9196 14.8389Z" fill="#72788E"/>
<path d="M35.9196 46.1619H6.66745C6.2964 46.1619 5.995 45.8664 5.995 45.5026C5.995 45.1388 6.2964 44.8433 6.66745 44.8433H35.9196C36.2907 44.8433 36.5921 45.1388 36.5921 45.5026C36.5921 45.8664 36.2907 46.1619 35.9196 46.1619Z" fill="#72788E"/>
<path d="M22.1167 50.2388H6.66745C6.2964 50.2388 5.995 49.9433 5.995 49.5795C5.995 49.2157 6.2964 48.9202 6.66745 48.9202H22.1167C22.4877 48.9202 22.7891 49.2157 22.7891 49.5795C22.7891 49.9433 22.4877 50.2388 22.1167 50.2388Z" fill="#72788E"/>
<path d="M21.2878 40.5437H11.1748C10.8037 40.5437 10.5023 40.2481 10.5023 39.8843V29.9687C10.5023 29.6048 10.8037 29.3093 11.1748 29.3093H21.2878C21.6588 29.3093 21.9603 29.6048 21.9603 29.9687V39.8843C21.9603 40.2481 21.6588 40.5437 21.2878 40.5437ZM11.8472 39.225H20.6153V30.628H11.8472V39.225Z" fill="#7AA95D"/>
<path d="M31.4008 40.5437H21.2878C20.9168 40.5437 20.6154 40.2481 20.6154 39.8843V29.9687C20.6154 29.6048 20.9168 29.3093 21.2878 29.3093H31.4008C31.7719 29.3093 32.0733 29.6048 32.0733 29.9687V39.8843C32.0733 40.2481 31.7719 40.5437 31.4008 40.5437ZM21.9603 39.225H30.7284V30.628H21.9603V39.225Z" fill="#7AA95D"/>
<path d="M31.4008 30.6279H21.2878C20.9168 30.6279 20.6154 30.3324 20.6154 29.9686V20.0529C20.6154 19.6891 20.9168 19.3936 21.2878 19.3936H31.4008C31.7719 19.3936 32.0733 19.6891 32.0733 20.0529V29.9686C32.0733 30.3324 31.7719 30.6279 31.4008 30.6279ZM21.9603 29.3092H30.7284V20.7122H21.9603V29.3092Z" fill="#7AA95D"/>
<path d="M27.6504 33.8965H25.0382C24.6672 33.8965 24.3658 33.601 24.3658 33.2372C24.3658 32.8734 24.6672 32.5779 25.0382 32.5779H27.6504C28.0215 32.5779 28.3229 32.8734 28.3229 33.2372C28.3229 33.601 28.0215 33.8965 27.6504 33.8965Z" fill="#7AA95D"/>
<path d="M27.6504 23.6082H25.0382C24.6672 23.6082 24.3658 23.3127 24.3658 22.9489C24.3658 22.5851 24.6672 22.2896 25.0382 22.2896H27.6504C28.0215 22.2896 28.3229 22.5851 28.3229 22.9489C28.3229 23.3127 28.0215 23.6082 27.6504 23.6082Z" fill="#7AA95D"/>
<path d="M17.5374 33.8965H14.9252C14.5542 33.8965 14.2527 33.601 14.2527 33.2372C14.2527 32.8734 14.5542 32.5779 14.9252 32.5779H17.5374C17.9084 32.5779 18.2098 32.8734 18.2098 33.2372C18.2098 33.601 17.9084 33.8965 17.5374 33.8965Z" fill="#7AA95D"/>
<path d="M32.2217 52.6388C31.982 52.6388 31.7297 52.6052 31.4728 52.5235C31.0926 52.4037 30.6131 52.1496 30.1758 51.6168C29.8504 51.8384 29.5216 52.003 29.2202 52.0892C28.4131 52.3187 27.905 51.9661 27.7029 51.5541C27.5454 51.234 27.462 50.9575 27.3913 50.7202C27.268 50.3015 27.268 50.3015 26.8079 50.231C25.681 50.0564 25.2986 51.1802 25.2597 51.309C25.1547 51.656 24.7791 51.8564 24.4275 51.7579C24.0724 51.6571 23.8669 51.2967 23.9662 50.9474C24.2037 50.1246 25.1444 48.6459 27.0156 48.928C28.2247 49.1127 28.4781 49.659 28.6825 50.353C28.7236 50.4929 28.7693 50.6496 28.8435 50.8265C28.9953 50.7829 29.2396 50.6608 29.5159 50.4593C29.0581 49.247 29.4269 48.0918 30.0137 47.4683C30.4144 47.0429 30.9248 46.8795 31.3666 47.0172C31.6349 47.1023 32.0996 47.372 32.2046 48.2239C32.3073 49.0702 31.8381 49.9948 31.1782 50.7336C31.386 51.0056 31.6246 51.187 31.8849 51.2698C32.2491 51.3829 32.5928 51.2922 32.7811 51.1791C32.9307 51.0873 33.1225 50.8746 33.3086 50.6687C33.7413 50.1907 34.3247 49.5358 35.149 49.7575C35.5063 49.8549 35.7164 50.2176 35.6182 50.569C35.52 50.9183 35.1581 51.1243 34.7905 51.0291C34.7448 51.0683 34.4754 51.3661 34.3144 51.544C34.0644 51.8205 33.8064 52.106 33.4901 52.2985C33.183 52.4855 32.7309 52.6388 32.2217 52.6388ZM30.8723 48.5396C30.7809 48.6963 30.6953 48.9134 30.6668 49.1731C30.7878 48.9459 30.8586 48.7287 30.8723 48.5396Z" fill="#72788E"/>
</svg>
