<svg width="26" height="182" viewBox="0 0 26 182" fill="none" xmlns="http://www.w3.org/2000/svg">
<path fill-rule="evenodd" clip-rule="evenodd" d="M26 20L0 0V182H4.3418C4.48047 180.382 4.79297 178.929 5.28027 177.64C5.77539 176.401 6.38379 175.258 7.10645 174.208C7.43457 173.733 7.78613 173.277 8.16016 172.84C9.36035 171.4 10.7598 170.08 12.3604 168.88C14 167.68 15.7197 166.46 17.5195 165.22C18.4404 164.58 19.4199 163.94 20.46 163.3C21.1436 162.854 21.7842 162.381 22.3809 161.882C22.6924 161.622 22.9922 161.354 23.2803 161.08C24.1602 160.28 24.8799 159.38 25.4404 158.38C25.6719 157.995 25.8584 157.588 26 157.162V152.561C25.7051 151.634 25.2188 150.853 24.54 150.22C23.3799 149.06 21.8799 148.48 20.04 148.48C18.7998 148.48 17.7402 148.78 16.8604 149.38C16.0195 149.94 15.3398 150.7 14.8203 151.66C14.2998 152.58 13.9199 153.62 13.6797 154.78C13.4805 155.9 13.3799 157.02 13.3799 158.14H5.21973C5.13965 155.74 5.41992 153.52 6.05957 151.48C6.44629 150.226 6.94824 149.073 7.56641 148.023C7.97363 147.331 8.43164 146.684 8.94043 146.08C10.2197 144.52 11.8203 143.32 13.7402 142.48C15.7002 141.6 17.9404 141.16 20.46 141.16C22.3799 141.16 24.2002 141.46 25.9199 142.06C25.9463 142.069 25.9736 142.078 26 142.088V20ZM26 167.908C25.0234 168.572 24.0361 169.236 23.04 169.9C21.5996 170.82 20.2002 171.82 18.8398 172.9C17.4805 173.98 16.2803 175.24 15.2402 176.68H26V167.908Z" fill="#373C4A"/>
<path d="M0 0L26 10V41.5002L0 51.5002V0Z" fill="#7AA95D"/>
<path d="M0 47L26 37V38.5002L0 48.5002V47Z" fill="#373C4A"/>
</svg>
