<svg width="26" height="262" viewBox="0 0 26 262" fill="none" xmlns="http://www.w3.org/2000/svg">
<path fill-rule="evenodd" clip-rule="evenodd" d="M26 19.9998L0 -0.000244141V220.343C1.69336 218.31 3.7998 216.743 6.32031 215.64C8.93359 214.467 11.9199 213.88 15.2803 213.88C17.8398 213.88 20.2666 214.28 22.5596 215.08C23.7861 215.498 24.9336 216.011 26 216.619V19.9998ZM26 247.226C25.4844 247.615 24.9512 247.993 24.4004 248.36C23.3486 249.081 22.2881 249.803 21.2188 250.524C20.3906 251.083 19.5576 251.641 18.7197 252.2C16.7998 253.427 14.9336 254.76 13.1201 256.2C11.3066 257.64 9.70703 259.32 8.32031 261.24H26V247.226ZM0 254.849C1.33301 253.417 2.82617 252.08 4.48047 250.84C6.66699 249.24 8.95996 247.613 11.3604 245.96C12.5869 245.107 13.8936 244.253 15.2803 243.4C16.667 242.493 17.9199 241.507 19.04 240.44C20.2129 239.373 21.1729 238.173 21.9199 236.84C22.7197 235.507 23.1201 233.987 23.1201 232.28C23.1201 229.56 22.3203 227.453 20.7197 225.96C19.1729 224.413 17.1729 223.64 14.7197 223.64C13.0664 223.64 11.6533 224.04 10.4805 224.84C9.36035 225.587 8.45312 226.6 7.75977 227.88C7.06641 229.107 6.55957 230.493 6.24023 232.04C6.08887 232.891 5.97949 233.741 5.91406 234.592C5.86426 235.234 5.83984 235.877 5.83984 236.52H0V254.849Z" fill="#373C4A"/>
<path d="M0 -0.000244141L26 9.99976V81.5L0 91.5V-0.000244141Z" fill="#7AA95D"/>
<path d="M0 86.9998L26 76.9998V78.5L0 88.5V86.9998Z" fill="#373C4A"/>
</svg>
