<svg width="26" height="182" viewBox="0 0 26 182" fill="none" xmlns="http://www.w3.org/2000/svg">
<path fill-rule="evenodd" clip-rule="evenodd" d="M26 20L0 0V182H13.9482C13.6953 181.925 13.4463 181.845 13.2002 181.76C11.2803 181.08 9.63965 180.1 8.28027 178.82C6.91992 177.5 5.86035 175.9 5.09961 174.02C4.37988 172.14 4.04004 169.98 4.08008 167.54H12.1797C12.2197 168.66 12.4004 169.74 12.7197 170.78C13.04 171.78 13.5 172.66 14.0996 173.42C14.4658 173.859 14.8848 174.247 15.3555 174.582C15.6562 174.796 15.9775 174.989 16.3203 175.16C17.2402 175.6 18.3203 175.82 19.5596 175.82C21.4805 175.82 23.0996 175.24 24.4199 174.08C25.1465 173.419 25.6729 172.632 26 171.717V166.596C25.8535 166.203 25.667 165.857 25.4404 165.56C25.2285 165.264 24.9941 164.997 24.7373 164.76C24.2666 164.327 23.7207 163.993 23.0996 163.76C22.1396 163.36 21.0801 163.14 19.9199 163.1C18.7998 163.02 17.7197 162.98 16.6797 162.98V156.98C17.5996 157.06 18.5801 157.06 19.6201 156.98C20.6602 156.9 21.6201 156.68 22.5 156.32C23.4199 155.92 24.1602 155.36 24.7197 154.64C25.165 154.106 25.4453 153.44 25.5605 152.643C25.6006 152.365 25.6201 152.07 25.6201 151.76C25.6201 149.96 25.0195 148.58 23.8203 147.62C22.6201 146.66 21.2402 146.18 19.6797 146.18C17.5195 146.18 15.8799 146.9 14.7598 148.34C14.1973 149.069 13.7871 149.901 13.5283 150.837C13.29 151.697 13.1807 152.645 13.2002 153.68H5.09961C5.17969 151.52 5.55957 149.56 6.24023 147.8C6.70898 146.629 7.28711 145.568 7.97559 144.617C8.3457 144.106 8.74707 143.627 9.17969 143.18C10.0312 142.328 10.9893 141.609 12.0537 141.023C12.5889 140.729 13.1514 140.468 13.7402 140.24C15.5 139.52 17.46 139.16 19.6201 139.16C21.2998 139.16 22.9805 139.42 24.6602 139.94C25.1201 140.072 25.5664 140.222 26 140.393V20ZM26 181.733C25.8545 181.784 25.708 181.833 25.5596 181.88C25.4297 181.921 25.2998 181.961 25.1689 182H26V181.733Z" fill="#373C4A"/>
<path d="M0 0L26 10V41.5002L0 51.5002V0Z" fill="#7AA95D"/>
<path d="M0 47L26 37V38.5002L0 48.5002V47Z" fill="#373C4A"/>
</svg>
