<svg width="26" height="271" viewBox="0 0 26 271" fill="none" xmlns="http://www.w3.org/2000/svg">
<path fill-rule="evenodd" clip-rule="evenodd" d="M26 19.9998L0 -0.000244141V222.493C0.0791016 222.408 0.15918 222.323 0.240234 222.24C1.94629 220.533 3.97363 219.227 6.32031 218.32C8.66699 217.36 11.2803 216.88 14.1602 216.88C16.4004 216.88 18.6396 217.227 20.8799 217.92C22.7549 218.456 24.4619 219.234 26 220.255V19.9998ZM26 243.554C25.7158 243.658 25.4219 243.754 25.1201 243.84V244C25.4199 244.067 25.7129 244.142 26 244.224V243.554ZM0.516602 271C0.341797 270.869 0.168945 270.735 0 270.598V271H0.516602ZM0 254.72H4.24023C4.29297 256.213 4.5332 257.653 4.95996 259.04C5.38672 260.373 6 261.547 6.7998 262.56C7.59961 263.52 8.58691 264.293 9.75977 264.88C10.542 265.254 11.4111 265.509 12.3672 265.645C12.9102 265.721 13.4814 265.76 14.0801 265.76C16.6396 265.76 18.7998 264.987 20.5596 263.44C22.3203 261.84 23.2002 259.68 23.2002 256.96C23.2002 254.827 22.7734 253.2 21.9199 252.08C21.1201 250.96 20.0801 250.16 18.7998 249.68C18.2559 249.453 17.6885 249.27 17.0967 249.13C16.2949 248.941 15.4492 248.831 14.5596 248.8C13.5869 248.73 12.6367 248.684 11.71 248.659C11.2139 248.646 10.7236 248.64 10.2402 248.64V240.64C11.4668 240.747 12.7734 240.747 14.1602 240.64C15.5469 240.533 16.8271 240.24 18 239.76C19.2266 239.227 20.2129 238.48 20.96 237.52C21.7598 236.56 22.1602 235.28 22.1602 233.68C22.1602 231.28 21.3604 229.44 19.7598 228.16C18.1602 226.88 16.3203 226.24 14.2402 226.24C11.3604 226.24 9.17285 227.2 7.67969 229.12C6.24023 230.987 5.54688 233.36 5.59961 236.24H0V254.72Z" fill="#373C4A"/>
<path d="M0 -0.000244141L26 9.99976V81.5L0 91.5V-0.000244141Z" fill="#7AA95D"/>
<path d="M0 86.9998L26 76.9998V78.5L0 88.5V86.9998Z" fill="#373C4A"/>
</svg>
