<svg viewBox="0 0 18 12" xmlns="http://www.w3.org/2000/svg">
<g clip-path="svg-car-url(#clip0)">
<path d="M3.995 10.1092C3.98113 10.0522 3.96376 9.99602 3.94299 9.94114C3.85563 9.71209 3.71186 9.50881 3.52499 9.35014C3.37093 9.21839 3.19061 9.12089 2.996 9.06413C2.93994 9.04733 2.88282 9.0343 2.82501 9.02513C2.60418 8.98866 2.37787 9.0041 2.16403 9.07023C1.9502 9.13636 1.75471 9.2514 1.59302 9.40617C1.55049 9.44675 1.51042 9.48979 1.47302 9.53514C1.26196 9.79387 1.14616 10.1173 1.14502 10.4512C1.14516 10.5664 1.15891 10.6811 1.186 10.7931C1.19982 10.8502 1.21719 10.9063 1.23801 10.9612C1.31748 11.1707 1.44459 11.3589 1.60928 11.511C1.77398 11.663 1.97176 11.7747 2.18701 11.8371C2.24281 11.8537 2.29957 11.8667 2.35699 11.8761C2.51225 11.9021 2.67076 11.9021 2.82602 11.8761C2.91178 11.862 2.9961 11.8402 3.078 11.8111C3.26861 11.7433 3.44276 11.6359 3.58902 11.4961C3.63149 11.4555 3.67155 11.4125 3.70901 11.3672C3.80928 11.2458 3.88868 11.1086 3.944 10.9612C4.00463 10.7983 4.03613 10.6259 4.03702 10.4521C4.0367 10.3365 4.02258 10.2214 3.995 10.1092ZM3.164 10.5561C3.1457 10.6567 3.10122 10.7508 3.03503 10.8287C2.96885 10.9067 2.88332 10.9658 2.78702 11.0002C2.69899 11.0318 2.60462 11.0417 2.51193 11.0292C2.41924 11.0167 2.33094 10.982 2.25446 10.9282C2.17797 10.8744 2.11555 10.8029 2.07248 10.7199C2.02941 10.6369 2.00697 10.5447 2.00702 10.4512C2.00728 10.3723 2.02344 10.2942 2.05453 10.2217C2.08563 10.1492 2.13104 10.0837 2.18802 10.0292C2.27059 9.95017 2.37454 9.8972 2.48697 9.87681C2.5994 9.85642 2.71535 9.86951 2.8204 9.91447C2.92545 9.95943 3.01498 10.0343 3.07785 10.1297C3.14072 10.2251 3.17415 10.3369 3.17401 10.4512C3.174 10.4864 3.17064 10.5215 3.164 10.5561Z"/>
<path d="M15.986 10.1092C15.9721 10.0522 15.9548 9.99602 15.934 9.94114C15.8466 9.71209 15.7029 9.50881 15.516 9.35014C15.3619 9.21841 15.1816 9.12091 14.987 9.06413C14.9309 9.04733 14.8738 9.0343 14.816 9.02513C14.5951 8.98866 14.3689 9.0041 14.155 9.07023C13.9412 9.13636 13.7457 9.2514 13.584 9.40617C13.5415 9.44676 13.5014 9.4898 13.464 9.53514C13.2529 9.79382 13.137 10.1172 13.136 10.4512C13.1361 10.5664 13.1499 10.6811 13.177 10.7931C13.2372 11.0397 13.3614 11.266 13.5369 11.4493C13.7125 11.6326 13.9332 11.7664 14.177 11.8371C14.2328 11.8537 14.2896 11.8667 14.347 11.8761C14.5022 11.902 14.6607 11.902 14.816 11.8761C14.9017 11.862 14.9861 11.8402 15.068 11.8111C15.2586 11.7433 15.4327 11.6359 15.579 11.4961C15.6215 11.4555 15.6615 11.4125 15.699 11.3672C15.9101 11.1085 16.0259 10.7851 16.027 10.4512C16.0269 10.3359 16.0131 10.2211 15.986 10.1092ZM15.155 10.5561C15.1367 10.6567 15.0922 10.7508 15.026 10.8287C14.9598 10.9067 14.8743 10.9658 14.778 11.0002C14.69 11.0318 14.5956 11.0417 14.5029 11.0292C14.4102 11.0167 14.3219 10.982 14.2454 10.9282C14.1689 10.8744 14.1065 10.8029 14.0634 10.7199C14.0204 10.6369 13.9979 10.5447 13.998 10.4512C13.9982 10.3722 14.0143 10.2942 14.0454 10.2217C14.0765 10.1491 14.122 10.0837 14.179 10.0292C14.2531 9.95855 14.3445 9.90865 14.444 9.8845C14.5435 9.86035 14.6476 9.86281 14.7458 9.89158C14.8441 9.92035 14.9331 9.97445 15.0038 10.0484C15.0746 10.1224 15.1246 10.2137 15.149 10.3132C15.1601 10.3583 15.1658 10.4046 15.166 10.4512C15.1653 10.4865 15.1613 10.5216 15.154 10.5561H15.155Z"/>
<path d="M17.323 6.33191H16.268L14.718 3.54791C14.6741 3.46533 14.6086 3.39631 14.5284 3.34821C14.4483 3.3001 14.3565 3.27472 14.263 3.2749H12.248C12.1806 3.2749 12.1139 3.28819 12.0517 3.31397C11.9894 3.33975 11.9329 3.37754 11.8853 3.42517C11.8376 3.47281 11.7998 3.52937 11.774 3.59161C11.7483 3.65385 11.735 3.72054 11.735 3.7879V9.48193H13.044C13.0841 9.41792 13.1282 9.35645 13.176 9.29791C13.2231 9.24102 13.2736 9.18694 13.327 9.13593C13.511 8.9586 13.7305 8.82225 13.971 8.7359C14.0743 8.69909 14.1808 8.67168 14.289 8.65393C14.4843 8.62148 14.6837 8.62148 14.879 8.65393C14.952 8.66559 15.0241 8.68197 15.095 8.70294C15.3404 8.77424 15.5677 8.89695 15.762 9.06293C15.8455 9.13386 15.9225 9.21219 15.992 9.29694C16.0399 9.35542 16.0839 9.41689 16.124 9.48096H17.324C17.4595 9.4799 17.589 9.42541 17.6845 9.32935C17.78 9.23328 17.8337 9.10342 17.834 8.96796V6.84491C17.834 6.7092 17.7802 6.57906 17.6844 6.48291C17.5887 6.38676 17.4587 6.33244 17.323 6.33191ZM12.331 6.21192V4.29694C12.331 4.20358 12.3681 4.11405 12.4341 4.04804C12.5001 3.98202 12.5896 3.94495 12.683 3.94495H14.065C14.129 3.94503 14.1918 3.96254 14.2466 3.99567C14.3014 4.02879 14.3462 4.07627 14.376 4.13294L15.543 6.21295L12.331 6.21192Z"/>
<path d="M11.318 1.80615H0V9.53711H1.01599C1.06475 9.45339 1.12028 9.37381 1.18201 9.29913C1.22915 9.24224 1.27957 9.18816 1.33301 9.13715C1.51703 8.95985 1.73649 8.8235 1.97699 8.73712C2.08032 8.70031 2.18674 8.67289 2.29498 8.65515C2.49031 8.6227 2.68965 8.6227 2.88498 8.65515C2.95797 8.66677 3.03012 8.68309 3.10098 8.7041C3.45391 8.80704 3.7676 9.01405 4.00101 9.2981C4.06273 9.37278 4.11823 9.45241 4.16699 9.53613H11.32L11.318 1.80615Z"/>
<path d="M10.406 1.50806L4.772 0.00104257C4.75888 -0.00195745 4.7451 0.000332622 4.73367 0.00745126C4.72225 0.0145699 4.71409 0.0259034 4.711 0.0390064L4.31799 1.50702L10.406 1.50806Z"/>
<path d="M0.456005 0.724121C0.449305 0.724379 0.442715 0.725956 0.436626 0.72876C0.430536 0.731564 0.425064 0.735556 0.420513 0.740479C0.415962 0.745401 0.412425 0.751156 0.410106 0.757446C0.407788 0.763737 0.406756 0.770401 0.407024 0.7771V1.50812H4.02101L4.231 0.724121H0.456005Z"/>
</g>
<defs>
<clipPath id="svg-car-clip0">
<rect width="17.836" height="11.897"/>
</clipPath>
</defs>
</svg>
