<svg viewBox="0 0 170 34" xmlns="http://www.w3.org/2000/svg">
<path fill-rule="evenodd" clip-rule="evenodd" d="M29.8065 16.518L20.5203 6.52485C20.4788 6.48017 20.4071 6.48316 20.3695 6.53116L0.0213399 32.4752C-0.0297469 32.5404 0.0166579 32.6357 0.0994382 32.6357H54.8014C54.8852 32.6357 54.9313 32.5384 54.8782 32.4736L36.5298 10.0585C36.4925 10.013 36.4241 10.0097 36.3826 10.0514L29.9496 16.5204C29.9099 16.5604 29.8449 16.5593 29.8065 16.518ZM43.8425 32.2483L30.4374 17.222C30.3591 17.1342 30.4715 17.0073 30.5681 17.0745L41.1755 24.452C41.1922 24.4636 41.205 24.4802 41.212 24.4994L44.0098 32.1481C44.0474 32.2509 43.9154 32.33 43.8425 32.2483Z" fill="#7AA95D"/>
<path d="M89.4579 26.7575V13.5669C89.4579 13.5264 89.4251 13.4937 89.3847 13.4937H85.6063C85.5659 13.4937 85.5331 13.5264 85.5331 13.5669V33.1779C85.5331 33.2183 85.5659 33.2511 85.6063 33.2511H89.9625C89.9873 33.2511 90.0105 33.2384 90.024 33.2175L98.3529 20.2792C98.3924 20.2178 98.4877 20.2458 98.4877 20.3188V33.1779C98.4877 33.2183 98.5205 33.2511 98.5609 33.2511H102.339C102.38 33.2511 102.413 33.2183 102.413 33.1779V13.8783C102.413 13.8378 102.38 13.805 102.339 13.805H98.1347C98.11 13.805 98.087 13.8175 98.0735 13.8382L89.5924 26.7976C89.5525 26.8585 89.4579 26.8303 89.4579 26.7575Z"/>
<path d="M165.661 13.8382L157.18 26.7976C157.14 26.8585 157.045 26.8303 157.045 26.7575V13.5669C157.045 13.5264 157.013 13.4937 156.972 13.4937H153.194C153.153 13.4937 153.121 13.5264 153.121 13.5669V33.1779C153.121 33.2183 153.153 33.2511 153.194 33.2511H157.55C157.575 33.2511 157.598 33.2384 157.612 33.2175L165.94 20.2792C165.98 20.2178 166.075 20.2458 166.075 20.3188V33.1779C166.075 33.2183 166.108 33.2511 166.148 33.2511H169.927C169.967 33.2511 170 33.2183 170 33.1779V13.8783C170 13.8378 169.967 13.805 169.927 13.805H165.722C165.698 13.805 165.675 13.8175 165.661 13.8382Z"/>
<path d="M121.146 21.4269H112.886C112.846 21.4269 112.813 21.3942 112.813 21.3537V13.5669C112.813 13.5264 112.78 13.4937 112.74 13.4937H108.649C108.609 13.4937 108.576 13.5264 108.576 13.5669V33.1779C108.576 33.2183 108.609 33.2511 108.649 33.2511H112.74C112.78 33.2511 112.813 33.2183 112.813 33.1779V25.2881C112.813 25.2476 112.846 25.2148 112.886 25.2148H121.146C121.187 25.2148 121.219 25.2476 121.219 25.2881V33.1779C121.219 33.2183 121.252 33.2511 121.293 33.2511H125.382C125.423 33.2511 125.456 33.2183 125.456 33.1779V13.5669C125.456 13.5264 125.423 13.4937 125.382 13.4937H121.293C121.252 13.4937 121.219 13.5264 121.219 13.5669V21.3537C121.219 21.3942 121.187 21.4269 121.146 21.4269Z"/>
<path d="M75.8995 26.7633C75.2681 29.0332 73.7983 30.1365 71.4062 30.1365C70.4434 30.1365 69.5911 29.9424 68.8732 29.5591C68.1564 29.1766 67.584 28.6603 67.1721 28.0239C66.7463 27.3675 66.4224 26.6353 66.209 25.8477C65.9945 25.0555 65.8854 24.1985 65.8854 23.3004C65.8854 22.1077 66.0713 20.9926 66.4378 19.9862C66.795 19.0056 67.4152 18.1665 68.2808 17.4933C69.1367 16.8283 70.1974 16.4912 71.4344 16.4912C72.6371 16.4912 73.6571 16.7979 74.4669 17.4028C75.0672 17.8519 75.5108 18.4357 75.7854 19.1382L75.9853 19.6487L79.0602 16.6904C79.086 16.6656 79.0901 16.6257 79.0698 16.5962L78.4591 15.7074C78.4562 15.7033 78.453 15.6994 78.4494 15.6958C76.6023 13.8432 74.2463 12.8999 71.4902 12.8999C69.466 12.8999 67.6741 13.3865 66.1639 14.3464C64.6545 15.3053 63.5062 16.5805 62.7511 18.1368C62.001 19.6813 61.621 21.4185 61.621 23.3004C61.621 26.4208 62.5119 28.9638 64.2695 30.859C66.0338 32.7625 68.4066 33.7278 71.3222 33.7278C73.8902 33.7278 76.0149 32.9834 77.637 31.5154C78.2598 30.9523 78.7871 30.3017 79.2051 29.5816L79.3491 29.3332L76.0643 26.1724L75.8995 26.7633Z"/>
<path d="M137.159 13.5116L129.212 33.1508C129.193 33.199 129.228 33.2515 129.28 33.2515H133.212C133.242 33.2515 133.268 33.2341 133.28 33.2072L135.516 27.9978C135.527 27.9709 135.554 27.9535 135.583 27.9535H142.907C142.936 27.9535 142.963 27.9712 142.974 27.9984L145.155 33.2066C145.166 33.2338 145.193 33.2515 145.222 33.2515H149.296C149.348 33.2515 149.383 33.199 149.364 33.1508L141.418 13.5116C141.406 13.4839 141.379 13.4658 141.35 13.4658H137.226C137.197 13.4658 137.17 13.4839 137.159 13.5116ZM141.46 24.1666H137.023C136.971 24.1666 136.936 24.1135 136.956 24.0653L139.225 18.614C139.25 18.5533 139.336 18.554 139.36 18.615L141.528 24.0664C141.547 24.1145 141.511 24.1666 141.46 24.1666Z"/>
<path d="M162.402 0.665949L159.514 17.9585C159.481 18.0607 159.62 18.1267 159.679 18.0372L165.491 9.21644C165.505 9.19505 165.51 9.16876 165.504 9.14386L162.579 0.672094C162.557 0.581393 162.43 0.576988 162.402 0.665949Z" fill="#7AA95D"/>
</svg>
