<svg viewBox="0 0 610 291" xmlns="http://www.w3.org/2000/svg">
<path fill-rule="evenodd" clip-rule="evenodd" d="M331.178 111.257L228 0.3517C227.538 -0.144244 226.742 -0.110975 226.324 0.421736L0.237106 288.352C-0.330516 289.075 0.185084 290.133 1.10485 290.133H608.895C609.826 290.133 610.338 289.053 609.748 288.334L405.88 39.5685C405.466 39.0634 404.705 39.0267 404.245 39.4895L332.768 111.284C332.327 111.727 331.605 111.715 331.178 111.257ZM487.131 285.833L338.188 119.07C337.318 118.095 338.567 116.687 339.64 117.432L457.498 199.309C457.684 199.438 457.826 199.622 457.904 199.835L488.99 284.721C489.408 285.862 487.941 286.739 487.131 285.833Z"/>
</svg>
