<svg width="118" height="100" viewBox="0 0 118 100" fill="none" xmlns="http://www.w3.org/2000/svg">
<path opacity="0.15" d="M21.4092 10.1717C21.4232 10.0732 21.5076 10 21.6072 10H107.77C107.891 10 107.985 10.1078 107.968 10.2283L96.5916 89.8283C96.5775 89.9268 96.4931 90 96.3936 90H10.231C10.1093 90 10.0158 89.8922 10.033 89.7717L21.4092 10.1717Z" fill="white"/>
<g opacity="0.2">
<mask id="path-2-inside-1" fill="white">
<path d="M11.4134 0.177282C11.425 0.0762733 11.5105 0 11.6121 0H117.776C117.896 0 117.988 0.104035 117.975 0.222719L106.587 99.8227C106.576 99.9237 106.49 100 106.389 100H0.224536C0.105079 100 0.0122609 99.896 0.0258304 99.7773L11.4134 0.177282Z"/>
</mask>
<path d="M0.0258304 99.7773L-0.967697 99.6637L0.0258304 99.7773ZM106.587 99.8227L107.581 99.9363L106.587 99.8227ZM117.975 0.222719L118.968 0.336312L117.975 0.222719ZM11.4134 0.177282L10.4199 0.0636888L11.4134 0.177282ZM11.6121 1H117.776V-1H11.6121V1ZM116.981 0.109125L105.594 99.7091L107.581 99.9363L118.968 0.336312L116.981 0.109125ZM106.389 99H0.224536V101H106.389V99ZM1.01936 99.8909L12.407 0.290875L10.4199 0.0636888L-0.967697 99.6637L1.01936 99.8909ZM0.224536 99C0.702361 99 1.07364 99.4161 1.01936 99.8909L-0.967697 99.6637C-1.04911 100.376 -0.492202 101 0.224536 101V99ZM105.594 99.7091C105.64 99.3051 105.982 99 106.389 99V101C106.999 101 107.512 100.542 107.581 99.9363L105.594 99.7091ZM117.776 1C117.298 1 116.927 0.583863 116.981 0.109125L118.968 0.336312C119.05 -0.375793 118.493 -1 117.776 -1V1ZM11.6121 -1C11.0021 -1 10.4892 -0.542359 10.4199 0.0636888L12.407 0.290875C12.3608 0.694906 12.0188 1 11.6121 1V-1Z" fill="white" mask="url(#path-2-inside-1)"/>
</g>
<path opacity="0.5" d="M68.3535 50.1495C68.6901 50.5712 68.6314 51.1839 68.2209 51.5341L55.2486 62.5992C54.5648 63.1825 53.5185 62.6378 53.6042 61.7431L55.9402 37.3518C56.0259 36.4571 57.1565 36.1209 57.7172 36.8233L68.3535 50.1495Z" fill="white"/>
</svg>
