<svg width="14" height="15" viewBox="0 0 14 15" xmlns="http://www.w3.org/2000/svg">
<path d="M7.00175 0.998535H6.99825C3.13863 0.998535 0 4.13804 0 7.99854C0 9.52979 0.4935 10.949 1.33263 12.1014L0.46025 14.7019L3.15088 13.8418C4.25775 14.575 5.57812 14.9985 7.00175 14.9985C10.8614 14.9985 14 11.8582 14 7.99854C14 4.13891 10.8614 0.998535 7.00175 0.998535ZM11.0749 10.8834C10.906 11.3603 10.2358 11.7558 9.70113 11.8713C9.33537 11.9492 8.85763 12.0113 7.24937 11.3445C5.19225 10.4923 3.8675 8.40191 3.76425 8.26628C3.66537 8.13066 2.933 7.15941 2.933 6.15491C2.933 5.15041 3.44313 4.66129 3.64875 4.45129C3.81763 4.27891 4.09675 4.20016 4.3645 4.20016C4.45113 4.20016 4.529 4.20454 4.599 4.20804C4.80463 4.21679 4.90788 4.22904 5.0435 4.55366C5.21238 4.96054 5.62362 5.96504 5.67262 6.06829C5.7225 6.17154 5.77238 6.31154 5.70238 6.44716C5.63675 6.58716 5.579 6.64928 5.47575 6.76828C5.3725 6.88729 5.2745 6.97829 5.17125 7.10604C5.07675 7.21716 4.97 7.33616 5.089 7.54179C5.208 7.74304 5.61925 8.41416 6.22475 8.95316C7.00612 9.64878 7.63962 9.87104 7.86625 9.96554C8.03512 10.0355 8.23637 10.0189 8.35975 9.88766C8.51637 9.71879 8.70975 9.43879 8.90662 9.16316C9.04663 8.96541 9.22338 8.94091 9.40888 9.01091C9.59788 9.07654 10.598 9.57091 10.8036 9.67328C11.0092 9.77654 11.1449 9.82554 11.1947 9.91216C11.2437 9.99879 11.2437 10.4057 11.0749 10.8834Z" />
</svg>
