<svg width="14" height="12" viewBox="0 0 14 12" xmlns="http://www.w3.org/2000/svg">
<path d="M13.6827 1.5899C13.4627 1.68745 13.2366 1.76978 13.0056 1.83661C13.2791 1.52726 13.4877 1.16326 13.615 0.764945C13.6435 0.675661 13.6139 0.577933 13.5405 0.51954C13.4672 0.461101 13.3654 0.454102 13.2847 0.501927C12.794 0.792944 12.2647 1.00209 11.7096 1.12438C11.1504 0.578023 10.391 0.26709 9.60594 0.26709C7.94875 0.26709 6.60052 1.61528 6.60052 3.27242C6.60052 3.40293 6.60878 3.53273 6.62513 3.66071C4.56872 3.48016 2.65692 2.46941 1.34409 0.859015C1.2973 0.801615 1.22523 0.77068 1.15143 0.776596C1.0776 0.782377 1.01125 0.824015 0.973952 0.888008C0.707683 1.3449 0.566916 1.86746 0.566916 2.39914C0.566916 3.1233 0.825463 3.81038 1.28218 4.34725C1.14331 4.29915 1.00855 4.23904 0.879927 4.16764C0.810876 4.12921 0.726605 4.1298 0.658006 4.16913C0.589361 4.20847 0.546322 4.28082 0.544516 4.35989C0.5442 4.37322 0.5442 4.38654 0.5442 4.40004C0.5442 5.48097 1.12596 6.45415 2.01541 6.98456C1.939 6.97693 1.86263 6.96586 1.78676 6.95137C1.70854 6.93642 1.62811 6.96383 1.57536 7.02349C1.52252 7.0831 1.50505 7.1662 1.52939 7.24207C1.85861 8.26993 2.70624 9.02597 3.73094 9.25648C2.88106 9.78879 1.90915 10.0676 0.888869 10.0676C0.67598 10.0676 0.461871 10.0551 0.252324 10.0303C0.148228 10.0179 0.0486932 10.0794 0.0132418 10.1784C-0.0222096 10.2774 0.0153643 10.3878 0.103925 10.4446C1.41463 11.285 2.93019 11.7292 4.48667 11.7292C7.5465 11.7292 9.46065 10.2863 10.5276 9.07588C11.858 7.56655 12.6211 5.56876 12.6211 3.59482C12.6211 3.51236 12.6198 3.42908 12.6173 3.34608C13.1422 2.9506 13.5941 2.47198 13.9619 1.92188C14.0177 1.83833 14.0117 1.72791 13.9469 1.651C13.8823 1.57405 13.7746 1.54917 13.6827 1.5899Z" />
</svg>
