<svg width="15" height="14" viewBox="0 0 15 14" xmlns="http://www.w3.org/2000/svg">
<path d="M0.264945 7.23199L3.72125 8.51606L5.05905 12.7986C5.14465 13.0729 5.4816 13.1743 5.70525 12.9923L7.63185 11.4289C7.8338 11.2651 8.12145 11.257 8.33251 11.4095L11.8074 13.9207C12.0467 14.0938 12.3856 13.9633 12.4456 13.6755L14.9912 1.48725C15.0567 1.1729 14.7464 0.910664 14.4457 1.02643L0.260895 6.47334C-0.0891559 6.60772 -0.0861059 7.10104 0.264945 7.23199ZM4.84345 7.83252L11.5984 3.69128C11.7198 3.61707 11.8447 3.78047 11.7404 3.87672L6.16565 9.03492C5.9697 9.21648 5.8433 9.45946 5.8075 9.72319L5.6176 11.124C5.59245 11.3111 5.3285 11.3296 5.27665 11.1486L4.5463 8.59415C4.46265 8.3028 4.58455 7.99158 4.84345 7.83252Z"/>
</svg>
