<svg width="10" height="16" viewBox="0 0 10 16" xmlns="http://www.w3.org/2000/svg">
<path d="M0.147317 8.58706C-0.261348 9.39039 0.20265 9.77439 1.26131 10.4304C2.16131 10.9864 3.40464 11.1897 4.2033 11.2711C3.87597 11.5857 5.37596 10.1431 1.05598 14.2984C0.139984 15.1764 1.61464 16.585 2.52997 15.7257L5.00797 13.3357C5.95663 14.2484 6.86596 15.123 7.48596 15.729C8.40195 16.5917 9.87595 15.195 8.96995 14.3017C8.90195 14.237 5.61196 11.0811 5.81263 11.2744C6.62129 11.1931 7.84596 10.9777 8.73529 10.4337L8.73462 10.4331C9.79328 9.77373 10.2573 9.39039 9.85461 8.58706C9.61128 8.13107 8.95528 7.74973 8.08195 8.40906C8.08195 8.40906 6.90263 9.31239 5.00063 9.31239C3.09797 9.31239 1.91931 8.40906 1.91931 8.40906C1.04665 7.7464 0.387983 8.13107 0.147317 8.58706Z"/>
<path d="M4.99927 8.09464C7.31793 8.09464 9.21126 6.28264 9.21126 4.05198C9.21126 1.81199 7.31793 0 4.99927 0C2.67995 0 0.786621 1.81199 0.786621 4.05198C0.786621 6.28264 2.67995 8.09464 4.99927 8.09464ZM4.99927 2.05266C6.1386 2.05266 7.06793 2.94666 7.06793 4.05198C7.06793 5.14798 6.1386 6.04198 4.99927 6.04198C3.85994 6.04198 2.93061 5.14798 2.93061 4.05198C2.92995 2.94599 3.85928 2.05266 4.99927 2.05266Z"/>
</svg>
