<svg viewBox="0 0.5 14 12" xmlns="http://www.w3.org/2000/svg">
<path d="M6.719 0.751484C6.81619 0.49158 7.18381 0.491579 7.281 0.751483L8.65855 4.43552C8.70071 4.54827 8.80619 4.6249 8.92645 4.63016L12.8559 4.80186C13.1331 4.81397 13.2467 5.1636 13.0295 5.33635L9.95149 7.7849C9.85728 7.85984 9.81699 7.98384 9.84916 8.09984L10.9001 11.89C10.9743 12.1574 10.6768 12.3735 10.4455 12.2203L7.16557 10.0496C7.06519 9.98314 6.93481 9.98314 6.83443 10.0496L3.55455 12.2203C3.32316 12.3735 3.02574 12.1574 3.09988 11.89L4.15084 8.09984C4.18301 7.98384 4.14272 7.85984 4.04851 7.7849L0.970475 5.33635C0.753323 5.1636 0.866925 4.81397 1.14414 4.80186L5.07355 4.63016C5.19381 4.6249 5.29929 4.54827 5.34145 4.43552L6.719 0.751484Z" />
</svg>
