<svg viewBox="0 0 14 13" xmlns="http://www.w3.org/2000/svg">
<g clip-path="url(#svg-wallet-clip0)">
<path d="M3.09502 2.41989L8.37302 0.978891L8.093 0.41389C8.0496 0.325988 7.98927 0.247529 7.91545 0.183023C7.84163 0.118517 7.75578 0.0692365 7.66286 0.0380128C7.56993 0.00678921 7.47174 -0.0057608 7.37395 0.00108276C7.27615 0.00792631 7.18068 0.0340278 7.093 0.0778898L2.37201 2.41989H3.09502Z"/>
<path d="M10.011 1.01978C9.94343 1.01964 9.87616 1.02872 9.81104 1.04678L8.57101 1.38577L4.78802 2.41878H10.96L10.728 1.56778C10.6854 1.41032 10.592 1.27131 10.4624 1.17225C10.3328 1.07319 10.1741 1.0196 10.011 1.01978Z"/>
<path d="M11.735 2.93994H0.745C0.581651 2.93994 0.422841 2.99369 0.293079 3.09291C0.163316 3.19213 0.0698132 3.3313 0.027 3.48894C0.0100292 3.55122 0.000958063 3.6154 0 3.67995L0 11.9629C0.000264573 12.1599 0.0786297 12.3488 0.217912 12.488C0.357194 12.6273 0.546025 12.7057 0.743 12.7059H11.733C11.93 12.7057 12.1188 12.6273 12.2581 12.488C12.3974 12.3488 12.4757 12.1599 12.476 11.9629V9.88895H8.065C7.73037 9.88895 7.40936 9.75636 7.17227 9.5202C6.93518 9.28405 6.80132 8.96357 6.8 8.62894V6.97995C6.8 6.64525 6.93296 6.32424 7.16963 6.08757C7.4063 5.8509 7.7273 5.71794 8.062 5.71794H12.475V3.67995C12.4747 3.48377 12.3967 3.2957 12.258 3.15698C12.1192 3.01826 11.9312 2.94021 11.735 2.93994Z"/>
<path d="M12.998 6.42377C12.9229 6.35481 12.8344 6.30205 12.738 6.26877C12.6604 6.24249 12.579 6.22897 12.497 6.22876H8.06503C7.86806 6.22902 7.67923 6.3074 7.53995 6.44669C7.40067 6.58597 7.32229 6.7748 7.32202 6.97177V8.62677C7.32229 8.82374 7.40067 9.01257 7.53995 9.15186C7.67923 9.29114 7.86806 9.36952 8.06503 9.36978H12.497C12.579 9.36958 12.6604 9.35607 12.738 9.32977C12.8347 9.29709 12.9233 9.24426 12.998 9.17477C13.0744 9.10519 13.1354 9.02042 13.1771 8.92587C13.2187 8.83133 13.2402 8.72909 13.24 8.62576V6.96777C13.2395 6.86529 13.2177 6.76405 13.1761 6.67041C13.1344 6.57677 13.0738 6.49278 12.998 6.42377ZM9.62103 7.94778C9.62103 8.04645 9.58182 8.14105 9.51205 8.21082C9.44229 8.28058 9.34768 8.31976 9.24902 8.31976H9.00201C8.90335 8.31976 8.80875 8.28058 8.73898 8.21082C8.66922 8.14105 8.63004 8.04645 8.63004 7.94778V7.70078C8.62976 7.64452 8.64252 7.58897 8.66733 7.53848C8.69214 7.48799 8.72831 7.44392 8.77301 7.40976C8.83841 7.35853 8.91894 7.33041 9.00201 7.32977H9.24902C9.34768 7.32977 9.44229 7.36896 9.51205 7.43872C9.58182 7.50848 9.62103 7.60312 9.62103 7.70178V7.94876V7.94778Z"/>
</g>
<defs>
<clipPath id="svg-wallet-clip0">
<rect width="13.241" height="12.71"/>
</clipPath>
</defs>
</svg>
