<?xml version="1.0" encoding="utf-8"?>
<!-- Generator: Adobe Illustrator 25.2.1, SVG Export Plug-In . SVG Version: 6.00 Build 0)  -->
<svg version="1.1" id="Layer_1" xmlns="http://www.w3.org/2000/svg" xmlns:xlink="http://www.w3.org/1999/xlink" x="0px" y="0px"
	 viewBox="0 0 39 58" style="enable-background:new 0 0 39 58;" xml:space="preserve">
<style type="text/css">
	.st0{opacity:0.2;fill:#7AA95D;}
</style>
<g>
	<path class="st0" d="M2.30002,20.08h6.8c-0.05334-1.7067,0.10666-3.3867,0.48-5.04c0.42666-1.7067,1.09336-3.2267,1.99996-4.56
		c0.9067-1.33334,2.0534-2.4,3.44-3.2c1.44-0.85333,3.1467-1.28,5.12-1.28c1.4934,0,2.9067,0.24,4.24,0.72
		c1.3334,0.48,2.48,1.17333,3.44,2.08c1.0134,0.90666,1.8134,2,2.4,3.28c0.5867,1.2267,0.88,2.6133,0.88,4.16
		c0,1.9733-0.32,3.7067-0.96,5.2c-0.5866,1.4933-1.4933,2.88-2.72,4.16c-1.1733,1.28-2.6666,2.56-4.48,3.84
		c-1.8133,1.2267-3.92,2.5867-6.32,4.08c-1.9733,1.1733-3.8666,2.4267-5.68,3.76c-1.8133,1.3333-3.43996,2.88-4.87996,4.64
		c-1.44,1.76-2.64,3.84-3.6,6.24c-0.90667,2.3467-1.49334,5.2-1.76,8.56h37.03996v-6H8.62002c0.32-1.76,0.98666-3.3067,1.99996-4.64
		c1.0667-1.3867,2.32-2.6667,3.76-3.84c1.4934-1.1733,3.12-2.2667,4.88-3.28c1.76-1.0667,3.52-2.1333,5.28-3.2
		c1.76-1.12,3.4667-2.2933,5.12-3.52c1.6534-1.2267,3.12-2.5867,4.4-4.08c1.28-1.5467,2.2934-3.28,3.04-5.2
		c0.8-1.92,1.2-4.1333,1.2-6.64c0-2.6667-0.48-5.0133-1.44-7.04c-0.9066-2.02667-2.16-3.70667-3.76-5.04
		c-1.6-1.38667-3.4933-2.42667-5.68-3.12c-2.1333-0.74667-4.4266-1.12-6.88-1.12c-2.9866,0-5.6533,0.50667-8,1.52
		c-2.34663,1.01333-4.31996,2.42667-5.91996,4.24c-1.54667,1.76-2.69334,3.86666-3.44,6.32
		C2.43335,14.5333,2.14002,17.2,2.30002,20.08z"/>
</g>
</svg>
