<?xml version="1.0" encoding="utf-8"?>
<!-- Generator: Adobe Illustrator 25.2.1, SVG Export Plug-In . SVG Version: 6.00 Build 0)  -->
<svg version="1.1" id="Layer_1" xmlns="http://www.w3.org/2000/svg" xmlns:xlink="http://www.w3.org/1999/xlink" x="0px" y="0px"
	 viewBox="0 0 39 58" style="enable-background:new 0 0 39 58;" xml:space="preserve">
<style type="text/css">
	.st0{opacity:0.2;fill:#7AA95D;enable-background:new    ;}
</style>
<path class="st0" d="M15.2134,24.32v5.76c1.28-0.16,2.64-0.24,4.08-0.24c1.7067,0,3.28,0.24,4.72,0.72
	c1.4934,0.4267,2.7734,1.12,3.84,2.08c1.0667,0.9067,1.92,2.0533,2.56,3.44c0.64,1.3333,0.96,2.88,0.96,4.64
	c0,1.7067-0.3466,3.2533-1.04,4.64c-0.64,1.3333-1.52,2.48-2.64,3.44c-1.12,0.9067-2.4266,1.6267-3.92,2.16
	c-1.4933,0.48-3.0666,0.72-4.72,0.72c-3.8933,0-6.8533-1.1467-8.88-3.44c-2.02663-2.3467-3.0933-5.36-3.19996-9.04h-6.8
	c-0.05333,2.9333,0.34667,5.5467,1.2,7.84c0.90666,2.2933,2.18666,4.24,3.84,5.84c1.65333,1.5467,3.65333,2.72,5.99996,3.52
	c2.3467,0.8,4.96,1.2,7.84,1.2c2.6667,0,5.1734-0.3467,7.52-1.04c2.4-0.7467,4.48-1.84,6.24-3.28c1.76-1.44,3.1467-3.2267,4.16-5.36
	c1.0667-2.1867,1.6-4.6933,1.6-7.52c0-3.4133-0.8533-6.3733-2.56-8.88c-1.6533-2.5067-4.2133-4.1333-7.68-4.88v-0.16
	c2.24-1.0133,4.1067-2.5067,5.6-4.48c1.4934-1.9733,2.24-4.24,2.24-6.8c0-2.6133-0.4533-4.88-1.36-6.8
	c-0.8533-1.92-2.0533-3.49334-3.6-4.72c-1.5466-1.22667-3.3866-2.13334-5.52-2.72c-2.08-0.64-4.3466-0.96-6.8-0.96
	c-2.8266,0-5.3333,0.45333-7.52,1.36c-2.1333,0.90667-3.91996,2.16-5.35996,3.76s-2.56,3.52-3.36,5.76
	c-0.74667,2.24-1.17334,4.72-1.28,7.44h6.8c0-1.6533,0.21333-3.2267,0.64-4.72s1.06666-2.8,1.91996-3.92
	c0.9067-1.12,2.0267-2,3.36-2.64c1.3867-0.69333,2.9867-1.04,4.8-1.04c2.88,0,5.28,0.77333,7.2,2.32c1.92,1.4933,2.88,3.76,2.88,6.8
	c0,1.4933-0.2933,2.8267-0.88,4c-0.5866,1.1733-1.3866,2.16-2.4,2.96c-0.96,0.7467-2.1066,1.3333-3.44,1.76
	c-1.28,0.3733-2.64,0.56-4.08,0.56h-1.44c-0.2666,0-0.5333,0-0.8,0C15.7201,24.4,15.4801,24.3733,15.2134,24.32z"/>
</svg>
