<?xml version="1.0" encoding="utf-8"?>
<!-- Generator: Adobe Illustrator 25.2.1, SVG Export Plug-In . SVG Version: 6.00 Build 0)  -->
<svg version="1.1" id="Layer_1" xmlns="http://www.w3.org/2000/svg" xmlns:xlink="http://www.w3.org/1999/xlink" x="0px" y="0px"
	 viewBox="0 0 39 58" style="enable-background:new 0 0 39 58;" xml:space="preserve">
<style type="text/css">
	.st0{opacity:0.2;fill:#7AA95D;}
</style>
<g>
	<path class="st0" d="M35.33998,6V0H7.34002l-5.28,29.44l5.84,0.32c1.33333-1.6,2.85336-2.88,4.55996-3.84
		c1.76-1.0133,3.76-1.52,6-1.52c1.92,0,3.6534,0.32,5.2,0.96c1.6,0.64,2.96,1.5467,4.08,2.72c1.12,1.12,1.9734,2.48,2.56,4.08
		c0.64,1.5467,0.96,3.2533,0.96,5.12c0,2.24-0.32,4.2133-0.96,5.92c-0.64,1.6533-1.52,3.04-2.64,4.16
		c-1.0666,1.12-2.3466,1.9733-3.84,2.56c-1.44,0.5333-2.96,0.8-4.56,0.8c-1.7066,0-3.28-0.24-4.72-0.72
		c-1.3866-0.5333-2.6133-1.2533-3.68-2.16c-1.0133-0.96-1.83996-2.0533-2.47996-3.28c-0.58667-1.28-0.93334-2.64-1.04-4.08h-6.8
		c0.05333,2.56,0.56,4.8533,1.52,6.88c0.96,2.0267,2.26666,3.7333,3.92,5.12c1.65333,1.3333,3.54666,2.3733,5.67996,3.12
		c2.1867,0.6933,4.5067,1.04,6.96,1.04c3.3067,0,6.1867-0.5067,8.64-1.52c2.5067-1.0667,4.5867-2.48,6.24-4.24
		c1.6534-1.76,2.88-3.76,3.68-6c0.8534-2.2933,1.28-4.64,1.28-7.04c0-3.2533-0.48-6.08-1.44-8.48
		c-0.96-2.4533-2.2666-4.48-3.92-6.08c-1.6533-1.6533-3.6-2.88-5.84-3.68s-4.6133-1.2-7.12-1.2c-1.92,0-3.8666,0.3467-5.84,1.04
		c-1.92,0.64-3.4933,1.6533-4.71996,3.04l-0.16-0.16L12.45998,6H35.33998z"/>
</g>
</svg>
