<?xml version="1.0" encoding="utf-8"?>
<!-- Generator: Adobe Illustrator 25.2.1, SVG Export Plug-In . SVG Version: 6.00 Build 0)  -->
<svg version="1.1" id="Layer_1" xmlns="http://www.w3.org/2000/svg" xmlns:xlink="http://www.w3.org/1999/xlink" x="0px" y="0px"
	 viewBox="0 0 39 58" style="enable-background:new 0 0 39 58;" xml:space="preserve">
<style type="text/css">
	.st0{opacity:0.2;}
	.st1{fill:#7AA95D;}
</style>
<g class="st0">
	<path class="st1" d="M30.33998,14.48h6.8c-0.4266-4.6933-2.0266-8.26667-4.8-10.72c-2.7733-2.50667-6.5066-3.76-11.2-3.76
		c-4.0533,0-7.4133,0.85333-10.08,2.56c-2.66663,1.70666-4.79996,3.97333-6.39996,6.8c-1.6,2.8267-2.74667,6.08-3.44,9.76
		c-0.64,3.6267-0.96,7.3867-0.96,11.28c0,2.9867,0.21333,6.08,0.64,9.28c0.48,3.2,1.41333,6.1333,2.8,8.8
		c1.38666,2.6667,3.36,4.8533,5.92,6.56c2.55996,1.7067,5.94666,2.56,10.15996,2.56c3.5734,0,6.56-0.5867,8.96-1.76
		c2.4534-1.2267,4.4-2.7467,5.84-4.56c1.4934-1.8667,2.56-3.92,3.2-6.16c0.64-2.24,0.96-4.4,0.96-6.48c0-2.6133-0.4-5.04-1.2-7.28
		s-1.9466-4.1867-3.44-5.84c-1.44-1.6533-3.2533-2.9333-5.44-3.84c-2.1333-0.96-4.56-1.44-7.28-1.44
		c-3.0933,0-5.84,0.5867-8.24,1.76c-2.3466,1.1733-4.31996,3.0667-5.91996,5.68l-0.16-0.16c0.05333-2.1867,0.26666-4.5333,0.64-7.04
		c0.37333-2.5067,1.04-4.8267,2-6.96c1.01336-2.1867,2.39996-3.97334,4.15996-5.36c1.76-1.44,4.08-2.16,6.96-2.16
		c2.72,0,4.9067,0.77333,6.56,2.32C29.03338,9.8667,30.01998,11.92,30.33998,14.48z M20.09998,26.24c1.92,0,3.6,0.3467,5.04,1.04
		c1.44,0.6933,2.64,1.6267,3.6,2.8c0.96,1.12,1.6534,2.48,2.08,4.08c0.48,1.5467,0.72,3.2,0.72,4.96c0,1.6533-0.2666,3.2533-0.8,4.8
		c-0.48,1.4933-1.2,2.8267-2.16,4s-2.16,2.1067-3.6,2.8c-1.3866,0.64-3.0133,0.96-4.88,0.96c-1.8666,0-3.5466-0.32-5.04-0.96
		c-1.44-0.6933-2.6666-1.6-3.68-2.72c-0.96-1.12-1.70663-2.4533-2.23996-4c-0.53334-1.5467-0.8-3.2-0.8-4.96s0.24-3.4133,0.72-4.96
		c0.53333-1.6,1.30666-2.96,2.31996-4.08c1.0134-1.1733,2.24-2.08,3.68-2.72C16.49998,26.5867,18.17998,26.24,20.09998,26.24z"/>
</g>
</svg>
