<svg width="91" height="97" viewBox="0 0 91 97" fill="none" xmlns="http://www.w3.org/2000/svg">
<path opacity="0.7" fill-rule="evenodd" clip-rule="evenodd" d="M35.3291 30L39.1266 0H37.1266L33.3291 30H35.3291Z" fill="#72788E"/>
<path opacity="0.2" fill-rule="evenodd" clip-rule="evenodd" d="M82.4556 97L90.0505 37H89.0505L81.4556 97H82.4556Z" fill="#373C4A"/>
<path fill-rule="evenodd" clip-rule="evenodd" d="M3.3291 91L9.65822 41H6.65822L0.329102 91H3.3291Z" fill="#7AA95D"/>
<g clip-path="url(#clip0)">
<path d="M22.9048 48.7534H19.9048V74.4618H22.9048V48.7534Z" fill="#E4EFD2"/>
<path d="M45.6133 75.0371H19.9043C19.5869 75.0371 19.3291 74.7793 19.3291 74.4619V48.7539C19.3291 48.4365 19.5869 48.1787 19.9043 48.1787H45.6133C45.9307 48.1787 46.1885 48.4365 46.1885 48.7539V74.4619C46.1885 74.7793 45.9307 75.0371 45.6133 75.0371ZM20.4795 73.8867H45.0381V49.3291H20.4795V73.8867Z" fill="#72788E"/>
<path d="M71.3213 75.0371H45.6133C45.2959 75.0371 45.0381 74.7793 45.0381 74.4619V48.7539C45.0381 48.4365 45.2959 48.1787 45.6133 48.1787H71.3213C71.6387 48.1787 71.8965 48.4365 71.8965 48.7539V74.4619C71.8965 74.7793 71.6387 75.0371 71.3213 75.0371ZM46.1885 73.8867H70.7461V49.3291H46.1885V73.8867Z" fill="#72788E"/>
<path d="M71.3213 49.3291H45.6133C45.2959 49.3291 45.0381 49.0713 45.0381 48.7539V43.3018C45.0381 42.9844 45.2959 42.7266 45.6133 42.7266H71.3213C71.6387 42.7266 71.8965 42.9844 71.8965 43.3018V48.7539C71.8965 49.0713 71.6387 49.3291 71.3213 49.3291ZM46.1885 48.1787H70.7461V43.877H46.1885V48.1787Z" fill="#7AA95D"/>
<path d="M71.3213 39.9404H45.6133C45.2959 39.9404 45.0381 39.6826 45.0381 39.3652V34.5752C45.0381 34.2578 45.2959 34 45.6133 34H71.3213C71.6387 34 71.8965 34.2578 71.8965 34.5752V39.3652C71.8965 39.6826 71.6387 39.9404 71.3213 39.9404ZM46.1885 38.79H70.7461V35.1504H46.1885V38.79Z" fill="#7AA95D"/>
<path d="M69.1328 43.877H43.1445C42.8271 43.877 42.5693 43.6191 42.5693 43.3018V39.3652C42.5693 39.0479 42.8271 38.79 43.1445 38.79H69.1328C69.4502 38.79 69.708 39.0479 69.708 39.3652V43.3018C69.708 43.6191 69.4502 43.877 69.1328 43.877ZM43.7197 42.7266H68.5576V39.9404H43.7197V42.7266Z" fill="#7AA95D"/>
<path d="M36.79 75.0371H28.7275V48.1787H36.79V75.0371ZM29.8779 73.8867H35.6396V49.3291H29.8779V73.8867Z" fill="#72788E"/>
<path d="M63.0752 58.1514H53.8594C52.4922 58.1514 51.3789 57.0381 51.3789 55.6709C51.3789 54.3037 52.4922 53.1914 53.8594 53.1914H63.0752C64.4424 53.1914 65.5557 54.3037 65.5557 55.6709C65.5557 57.0381 64.4424 58.1514 63.0752 58.1514ZM53.8594 54.3418C53.126 54.3418 52.5293 54.9375 52.5293 55.6709C52.5293 56.4043 53.126 57.001 53.8594 57.001H63.0752C63.8086 57.001 64.4053 56.4043 64.4053 55.6709C64.4053 54.9375 63.8086 54.3418 63.0752 54.3418H53.8594Z" fill="#72788E"/>
<path d="M29.8779 55.8555H19.3291V52.54H29.8779V55.8555ZM20.4795 54.7051H28.7275V53.6904H20.4795V54.7051Z" fill="#72788E"/>
<path d="M46.1885 55.8555H35.6396V52.54H46.1885V55.8555ZM36.79 54.7051H45.0381V53.6904H36.79V54.7051Z" fill="#72788E"/>
<path d="M55.6572 66.9736H48.6367C48.3193 66.9736 48.0615 66.7158 48.0615 66.3984C48.0615 66.0811 48.3193 65.8232 48.6367 65.8232H55.6572C55.9746 65.8232 56.2324 66.0811 56.2324 66.3984C56.2324 66.7158 55.9746 66.9736 55.6572 66.9736Z" fill="#72788E"/>
<path d="M68.4912 46.6025H61.4697C61.1523 46.6025 60.8945 46.3447 60.8945 46.0273C60.8945 45.71 61.1523 45.4521 61.4697 45.4521H68.4912C68.8086 45.4521 69.0664 45.71 69.0664 46.0273C69.0664 46.3447 68.8086 46.6025 68.4912 46.6025Z" fill="#7AA95D"/>
<path d="M52.9053 37.5449H48.4697C48.1523 37.5449 47.8945 37.2871 47.8945 36.9697C47.8945 36.6523 48.1523 36.3945 48.4697 36.3945H52.9053C53.2227 36.3945 53.4805 36.6523 53.4805 36.9697C53.4805 37.2871 53.2227 37.5449 52.9053 37.5449Z" fill="#7AA95D"/>
<path d="M61.6572 70.5303H48.6367C48.3193 70.5303 48.0615 70.2725 48.0615 69.9551C48.0615 69.6377 48.3193 69.3799 48.6367 69.3799H61.6572C61.9746 69.3799 62.2324 69.6377 62.2324 69.9551C62.2324 70.2725 61.9746 70.5303 61.6572 70.5303Z" fill="#72788E"/>
</g>
<defs>
<clipPath id="clip0">
<rect width="52.5674" height="41.0371" fill="white" transform="translate(19.3291 34)"/>
</clipPath>
</defs>
</svg>
