<svg width="88" height="87" viewBox="0 0 88 87" fill="none" xmlns="http://www.w3.org/2000/svg">
<path opacity="0.7" fill-rule="evenodd" clip-rule="evenodd" d="M68.3291 30L72.1266 0H70.1266L66.3291 30H68.3291Z" fill="#72788E"/>
<path opacity="0.2" fill-rule="evenodd" clip-rule="evenodd" d="M81.3291 85L87.6582 35H86.6582L80.3291 85H81.3291Z" fill="#373C4A"/>
<path fill-rule="evenodd" clip-rule="evenodd" d="M3 87L9.32911 37H6.32911L0 87H3Z" fill="#7AA95D"/>
<path d="M22.9038 63.2783V38.838C22.9038 37.7168 23.8212 36.7994 24.9424 36.7994H21.9424C20.8212 36.7994 19.9038 37.7168 19.9038 38.838V63.2783C19.9038 64.3995 20.8212 65.3168 21.9424 65.3168H24.9424C23.8212 65.3168 22.9038 64.3995 22.9038 63.2783Z" fill="#E4EFD2"/>
<path d="M57.6436 65.8922H33.5186V64.7418H56.4932V38.8385C56.4932 38.0309 55.8369 37.3746 55.0293 37.3746H21.9424C21.1357 37.3746 20.4795 38.0309 20.4795 38.8385V63.278C20.4795 64.0856 21.1357 64.7418 21.9424 64.7418V65.8922C20.502 65.8922 19.3291 64.7194 19.3291 63.278V38.8385C19.3291 37.3971 20.502 36.2242 21.9424 36.2242H55.0293C56.4707 36.2242 57.6436 37.3971 57.6436 38.8385V65.8922Z" fill="#72788E"/>
<path d="M72.4482 65.8922H71.3135C70.9961 65.8922 70.7383 65.6344 70.7383 65.317C70.7383 64.9996 70.9961 64.7418 71.3135 64.7418H72.4482C73.2559 64.7418 73.9121 64.0856 73.9121 63.278V54.6051C73.9121 54.319 73.8301 54.0416 73.6738 53.8033L69.0176 46.7008C68.7461 46.2867 68.2881 46.0397 67.793 46.0397H57.6436V64.7418H60.2422C60.5596 64.7418 60.8174 64.9996 60.8174 65.317C60.8174 65.6344 60.5596 65.8922 60.2422 65.8922H57.0684C56.751 65.8922 56.4932 65.6344 56.4932 65.317V45.4645C56.4932 45.1471 56.751 44.8893 57.0684 44.8893H67.793C68.6777 44.8893 69.4941 45.3307 69.9785 46.0699L74.6348 53.1725C74.915 53.5983 75.0625 54.0944 75.0625 54.6051V63.278C75.0625 64.7194 73.8896 65.8922 72.4482 65.8922Z" fill="#72788E"/>
<path d="M27.9834 71.9615C26.418 71.9615 24.8535 71.3658 23.6621 70.1744C21.2803 67.7916 21.2803 63.9156 23.6621 61.5328C26.043 59.15 29.9189 59.1481 32.3037 61.5328C34.6865 63.9156 34.6865 67.7916 32.3037 70.1744C31.1123 71.3658 29.5479 71.9615 27.9834 71.9615ZM27.9834 60.8961C26.7119 60.8961 25.4424 61.3785 24.4746 62.3453C22.542 64.2799 22.542 67.4274 24.4746 69.3619C26.4111 71.2965 29.5566 71.2936 31.4912 69.3619C33.4248 67.4274 33.4248 64.2799 31.4912 62.3453C30.5234 61.3795 29.2529 60.8961 27.9834 60.8961Z" fill="#72788E"/>
<path d="M27.9833 68.6676C27.2313 68.6676 26.5253 68.3746 25.993 67.8424C24.8973 66.7457 24.8973 64.9615 25.994 63.8649C27.0887 62.7672 28.8749 62.7672 29.9716 63.8649C31.0682 64.9615 31.0682 66.7457 29.9725 67.8424H29.9716C29.4403 68.3746 28.7343 68.6676 27.9833 68.6676ZM27.9833 64.191C27.5565 64.191 27.1307 64.3531 26.8065 64.6774C26.1581 65.3258 26.1581 66.3815 26.8065 67.0299C27.4344 67.6588 28.5302 67.6598 29.1581 67.0299C29.1591 67.0299 29.1591 67.0299 29.1591 67.0299C29.8075 66.3815 29.8075 65.3258 29.1591 64.6774C28.8348 64.3531 28.4091 64.191 27.9833 64.191Z" fill="#72788E"/>
<path d="M65.7773 71.9615C64.2129 71.9615 62.6484 71.3658 61.457 70.1744C59.0742 67.7916 59.0742 63.9156 61.457 61.5328C63.8379 59.15 67.7139 59.1481 70.0986 61.5328C72.4805 63.9156 72.4805 67.7916 70.0986 70.1744C68.9072 71.3658 67.3428 71.9615 65.7773 71.9615ZM65.7783 60.8961C64.5078 60.8961 63.2373 61.3785 62.2695 62.3453C60.3359 64.2799 60.3359 67.4274 62.2695 69.3619C64.2061 71.2955 67.3516 71.2955 69.2861 69.3619C71.2188 67.4274 71.2188 64.2799 69.2861 62.3453C68.3184 61.3795 67.0479 60.8961 65.7783 60.8961ZM69.6924 69.7682H69.7021H69.6924Z" fill="#72788E"/>
<path d="M65.7782 68.6676C65.0262 68.6676 64.3202 68.3746 63.788 67.8424C62.6923 66.7457 62.6923 64.9615 63.7889 63.8649C64.8837 62.7672 66.6698 62.7672 67.7665 63.8649C68.8632 64.9615 68.8632 66.7457 67.7675 67.8424H67.7665C67.2352 68.3746 66.5292 68.6676 65.7782 68.6676ZM65.7782 64.191C65.3514 64.191 64.9257 64.3531 64.6014 64.6774C63.953 65.3258 63.953 66.3815 64.6014 67.0299C65.2303 67.6588 66.326 67.6598 66.953 67.0299C66.954 67.0299 66.954 67.0299 66.954 67.0299C67.6024 66.3815 67.6024 65.3258 66.954 64.6774C66.6298 64.3531 66.204 64.191 65.7782 64.191Z" fill="#72788E"/>
<path d="M52.4111 55.9655H25.6855C25.4657 55.9655 25.2216 55.8131 25.1259 55.6149C25.0292 55.4176 25.0585 55.1315 25.1943 54.9586L35.1366 42.2819C35.2392 42.15 35.4306 42.0514 35.5976 42.0436C35.7929 42.0426 35.9638 42.1168 36.079 42.236L40.248 46.7233L43.0038 43.9518C43.1181 43.8366 43.3202 43.7799 43.4765 43.7682C43.6386 43.776 43.8241 43.8688 43.9277 43.9938L52.8935 54.9469C53.0341 55.1188 53.0693 55.4078 52.9745 55.609C52.8798 55.8102 52.6337 55.9655 52.4111 55.9655ZM26.7675 54.8151H51.2987L43.4091 45.1754L40.6777 47.9225C40.5693 48.0309 40.3876 48.0914 40.2353 48.0914H40.2343C40.0819 48.0914 39.9003 48.0309 39.7929 47.9225C39.788 47.9176 39.7831 47.9127 39.7782 47.9078L35.6611 43.4762L26.7675 54.8151Z" fill="#7AA95D"/>
<path d="M44.5077 53.8161C44.3368 53.8161 44.1678 53.7399 44.0546 53.5954L41.1766 49.9157C40.9813 49.6657 41.0253 49.3044 41.2753 49.1081C41.5262 48.9128 41.8876 48.9577 42.0829 49.2067L44.9608 52.8864C45.1561 53.1364 45.1122 53.4977 44.8622 53.694C44.7567 53.7761 44.6317 53.8161 44.5077 53.8161Z" fill="#7AA95D"/>
<path d="M70.5625 55.5045H59.8975C59.5801 55.5045 59.3223 55.2467 59.3223 54.9293V48.6705C59.3223 48.3531 59.5801 48.0953 59.8975 48.0953H66.4639C67.0811 48.0953 67.6514 48.4039 67.9893 48.9205L70.8389 53.2682C71.0342 53.5641 71.1377 53.9098 71.1377 54.2672V54.9293C71.1377 55.2467 70.8799 55.5045 70.5625 55.5045ZM60.4727 54.3541H69.9873V54.2672C69.9873 54.1354 69.9502 54.0084 69.8779 53.9L67.0273 49.5504C66.9023 49.359 66.6914 49.2457 66.4639 49.2457H60.4727V54.3541Z" fill="#72788E"/>
<path d="M72.8037 60.152H70.5625C70.2451 60.152 69.9873 59.8942 69.9873 59.5768C69.9873 59.2594 70.2451 59.0016 70.5625 59.0016H72.8037C73.1211 59.0016 73.3789 59.2594 73.3789 59.5768C73.3789 59.8942 73.1211 60.152 72.8037 60.152Z" fill="#72788E"/>
<path d="M25.6386 37.3747C25.4355 37.3747 25.2382 37.2672 25.1337 37.0768C24.9804 36.7985 25.082 36.4489 25.3603 36.2956L34.8486 31.0709C35.0429 30.9645 35.2812 30.9791 35.4589 31.1061L42.8007 36.3307C43.0595 36.5153 43.12 36.8737 42.9364 37.1325C42.7519 37.3913 42.3925 37.4498 42.1347 37.2682L35.0868 32.2526L25.915 37.3034C25.8271 37.3512 25.7323 37.3747 25.6386 37.3747Z" fill="#72788E"/>
<path d="M55.0282 37.3747C54.9218 37.3747 54.8134 37.3444 54.7177 37.2829L48.6894 33.3903L39.1405 34.9333C38.8173 34.9821 38.5312 34.7712 38.4814 34.4577C38.4306 34.1442 38.6435 33.8493 38.957 33.7985L48.7236 32.2204C48.8661 32.1989 49.0087 32.2292 49.1269 32.3044L55.3407 36.3161C55.6083 36.4889 55.6845 36.8444 55.5126 37.111C55.4023 37.2819 55.2177 37.3747 55.0282 37.3747Z" fill="#72788E"/>
</svg>
