<svg width="75" height="93" viewBox="0 0 75 93" fill="none" xmlns="http://www.w3.org/2000/svg">
<path opacity="0.7" fill-rule="evenodd" clip-rule="evenodd" d="M56.2153 23L59.1267 0H57.1267L54.2153 23H56.2153Z" fill="#72788E"/>
<path opacity="0.2" fill-rule="evenodd" clip-rule="evenodd" d="M65.8608 93L74.7216 23H73.7216L64.8608 93H65.8608Z" fill="#373C4A"/>
<path fill-rule="evenodd" clip-rule="evenodd" d="M3.3291 91L9.65822 41H6.65822L0.329102 91H3.3291Z" fill="#7AA95D"/>
<path d="M24.9043 76.1517V33.5752C24.9043 31.9252 26.2543 30.5752 27.9043 30.5752H24.9043C23.2543 30.5752 21.9043 31.9252 21.9043 33.5752V76.1517C21.9043 77.8017 23.2543 79.1517 24.9043 79.1517H27.9043C26.2543 79.1517 24.9043 77.8017 24.9043 76.1517Z" fill="#E4EFD2"/>
<path d="M46.6279 79.7266H24.9043C22.9326 79.7266 21.3291 78.123 21.3291 76.1514V33.5752C21.3291 31.6035 22.9326 30 24.9043 30H46.6279C48.5996 30 50.2031 31.6035 50.2031 33.5752V76.1514C50.2031 78.123 48.5996 79.7266 46.6279 79.7266ZM24.9043 31.1504C23.5674 31.1504 22.4795 32.2383 22.4795 33.5752V76.1514C22.4795 77.4883 23.5674 78.5762 24.9043 78.5762H46.6279C47.9648 78.5762 49.0527 77.4883 49.0527 76.1514V33.5752C49.0527 32.2383 47.9648 31.1504 46.6279 31.1504H24.9043Z" fill="#72788E"/>
<path d="M49.6279 37.6631H21.9043V38.8135H49.6279V37.6631Z" fill="#72788E"/>
<path d="M39.2764 35.3184H32.2549C31.9375 35.3184 31.6797 35.0605 31.6797 34.7432C31.6797 34.4258 31.9375 34.168 32.2549 34.168H39.2764C39.5938 34.168 39.8516 34.4258 39.8516 34.7432C39.8516 35.0605 39.5938 35.3184 39.2764 35.3184Z" fill="#72788E"/>
<path d="M34.0332 62.584H27.0117C26.6943 62.584 26.4365 62.3262 26.4365 62.0088C26.4365 61.6914 26.6943 61.4336 27.0117 61.4336H34.0332C34.3506 61.4336 34.6084 61.6914 34.6084 62.0088C34.6084 62.3262 34.3506 62.584 34.0332 62.584Z" fill="#72788E"/>
<path d="M40.0332 66.1406H27.0117C26.6943 66.1406 26.4365 65.8828 26.4365 65.5654C26.4365 65.248 26.6943 64.9902 27.0117 64.9902H40.0332C40.3506 64.9902 40.6084 65.248 40.6084 65.5654C40.6084 65.8828 40.3506 66.1406 40.0332 66.1406Z" fill="#72788E"/>
<path d="M44.6279 53.584H37.6064C37.2891 53.584 37.0312 53.3262 37.0312 53.0088C37.0312 52.6914 37.2891 52.4336 37.6064 52.4336H44.6279C44.9453 52.4336 45.2031 52.6914 45.2031 53.0088C45.2031 53.3262 44.9453 53.584 44.6279 53.584Z" fill="#72788E"/>
<path d="M41.6279 57.1406H37.6064C37.2891 57.1406 37.0312 56.8828 37.0312 56.5654C37.0312 56.248 37.2891 55.9902 37.6064 55.9902H41.6279C41.9453 55.9902 42.2031 56.248 42.2031 56.5654C42.2031 56.8828 41.9453 57.1406 41.6279 57.1406Z" fill="#72788E"/>
<path d="M40.0332 69.6973H27.0117C26.6943 69.6973 26.4365 69.4395 26.4365 69.1221C26.4365 68.8047 26.6943 68.5469 27.0117 68.5469H40.0332C40.3506 68.5469 40.6084 68.8047 40.6084 69.1221C40.6084 69.4395 40.3506 69.6973 40.0332 69.6973Z" fill="#72788E"/>
<path d="M49.6279 74.2334H21.9043V75.3838H49.6279V74.2334Z" fill="#72788E"/>
<path d="M33.917 51.6836H27.127C26.8096 51.6836 26.5518 51.4258 26.5518 51.1084V44.3174C26.5518 44 26.8096 43.7422 27.127 43.7422H33.917C34.2344 43.7422 34.4922 44 34.4922 44.3174V51.1084C34.4922 51.4258 34.2344 51.6836 33.917 51.6836ZM27.7021 50.5332H33.3418V44.8926H27.7021V50.5332Z" fill="#72788E"/>
<path d="M31.3994 46.876H29.6455C29.3281 46.876 29.0703 46.6182 29.0703 46.3008C29.0703 45.9834 29.3281 45.7256 29.6455 45.7256H31.3994C31.7168 45.7256 31.9746 45.9834 31.9746 46.3008C31.9746 46.6182 31.7168 46.876 31.3994 46.876Z" fill="#72788E"/>
<path d="M40.5196 48.5928C40.3809 48.5928 40.2432 48.543 40.1329 48.4434L37.6768 46.2149C37.4425 46.002 37.4239 45.6377 37.6378 45.4024C37.8507 45.168 38.2159 45.1514 38.4503 45.3633L40.5196 47.2412L44.8682 43.2949C45.1046 43.083 45.4679 43.0986 45.6807 43.334C45.8946 43.5694 45.8761 43.9336 45.6417 44.1465L40.9063 48.4434C40.796 48.543 40.6583 48.5928 40.5196 48.5928Z" fill="#7AA95D"/>
<path d="M33.917 58.4736H27.127C26.8096 58.4736 26.5518 58.2158 26.5518 57.8984V51.1084C26.5518 50.791 26.8096 50.5332 27.127 50.5332H33.917C34.2344 50.5332 34.4922 50.791 34.4922 51.1084V57.8984C34.4922 58.2158 34.2344 58.4736 33.917 58.4736ZM27.7021 57.3232H33.3418V51.6836H27.7021V57.3232Z" fill="#7AA95D"/>
<path d="M31.3994 53.666H29.6455C29.3281 53.666 29.0703 53.4082 29.0703 53.0908C29.0703 52.7734 29.3281 52.5156 29.6455 52.5156H31.3994C31.7168 52.5156 31.9746 52.7734 31.9746 53.0908C31.9746 53.4082 31.7168 53.666 31.3994 53.666Z" fill="#7AA95D"/>
</svg>
