<svg width="89" height="88" viewBox="0 0 89 88" fill="none" xmlns="http://www.w3.org/2000/svg">
<path opacity="0.7" fill-rule="evenodd" clip-rule="evenodd" d="M68.3291 30L72.1266 0H70.1266L66.3291 30H68.3291Z" fill="#72788E"/>
<path opacity="0.2" fill-rule="evenodd" clip-rule="evenodd" d="M79.3291 88L88.1899 18H87.1899L78.3291 88H79.3291Z" fill="#373C4A"/>
<path fill-rule="evenodd" clip-rule="evenodd" d="M3 87L9.32911 37H6.32911L0 87H3Z" fill="#7AA95D"/>
<path d="M38.8371 37.0294H35.8545V59.19H38.8371V37.0294Z" fill="#E4EFD2"/>
<path d="M18.9043 73.2579V69.8035C18.9043 69.2535 19.3542 68.8035 19.9043 68.8035H16.9043C16.3542 68.8035 15.9043 69.2535 15.9043 69.8035V73.2579C15.9043 73.8079 16.3542 74.2579 16.9043 74.2579H19.9043C19.3542 74.2579 18.9043 73.8079 18.9043 73.2579Z" fill="#E4EFD2"/>
<path d="M35.8545 59.19V37.0294" stroke="#72788E" stroke-width="1.15" stroke-miterlimit="10"/>
<path d="M42.7095 37.0294V49.5766" stroke="#72788E" stroke-width="1.15" stroke-miterlimit="10"/>
<path d="M61.6594 74.2579H16.9043C16.3543 74.2579 15.9043 73.8079 15.9043 73.2579V69.8035C15.9043 69.2535 16.3543 68.8035 16.9043 68.8035H61.6594C62.2094 68.8035 62.6594 69.2535 62.6594 69.8035V73.2579C62.6594 73.8079 62.2094 74.2579 61.6594 74.2579Z" stroke="#72788E" stroke-width="1.15" stroke-miterlimit="10"/>
<path d="M51.267 37.0294H27.2965C26.5839 37.0294 26.001 36.4465 26.001 35.7339V28.8704C26.001 28.1579 26.5839 27.575 27.2965 27.575H51.267C51.9795 27.575 52.5624 28.1579 52.5624 28.8704V35.7339C52.5624 36.4465 51.9795 37.0294 51.267 37.0294Z" stroke="#72788E" stroke-width="1.15" stroke-miterlimit="10"/>
<path d="M25.2859 79.7124H18.6196C18.2262 79.7124 17.9043 79.3905 17.9043 78.9971V74.9732C17.9043 74.5798 18.2262 74.2579 18.6196 74.2579H25.2859C25.6793 74.2579 26.0011 74.5798 26.0011 74.9732V78.9971C26.0011 79.3905 25.6793 79.7124 25.2859 79.7124Z" stroke="#72788E" stroke-width="1.15" stroke-miterlimit="10"/>
<path d="M59.9441 79.7124H53.2778C52.8844 79.7124 52.5625 79.3905 52.5625 78.9971V74.9732C52.5625 74.5798 52.8844 74.2579 53.2778 74.2579H59.9441C60.3375 74.2579 60.6593 74.5798 60.6593 74.9732V78.9971C60.6593 79.3905 60.3375 79.7124 59.9441 79.7124Z" stroke="#72788E" stroke-width="1.15" stroke-miterlimit="10"/>
<path d="M39.2819 59.1901H29.6685V68.8035H39.2819V59.1901Z" stroke="#7AA95D" stroke-width="1.15" stroke-miterlimit="10" stroke-linecap="round" stroke-linejoin="round"/>
<path d="M48.8952 59.1901H39.2817V68.8035H48.8952V59.1901Z" stroke="#7AA95D" stroke-width="1.15" stroke-miterlimit="10" stroke-linecap="round" stroke-linejoin="round"/>
<path d="M42.8469 62.3591H45.3301" stroke="#7AA95D" stroke-width="1.15" stroke-miterlimit="10" stroke-linecap="round" stroke-linejoin="round"/>
<path d="M48.8952 49.5765H39.2817V59.19H48.8952V49.5765Z" stroke="#7AA95D" stroke-width="1.15" stroke-miterlimit="10" stroke-linecap="round" stroke-linejoin="round"/>
<path d="M42.8469 52.3842H45.3301" stroke="#7AA95D" stroke-width="1.15" stroke-miterlimit="10" stroke-linecap="round" stroke-linejoin="round"/>
<path d="M33.2336 62.3591H35.7168" stroke="#7AA95D" stroke-width="1.15" stroke-miterlimit="10" stroke-linecap="round" stroke-linejoin="round"/>
<path d="M30.0164 31.3178L31.8404 29.7084V34.896" stroke="#72788E" stroke-width="1.15" stroke-miterlimit="10" stroke-linecap="round" stroke-linejoin="round"/>
<path d="M37.7845 29.7084H34.8113V34.896H37.7845V29.7084Z" stroke="#72788E" stroke-width="1.15" stroke-miterlimit="10" stroke-linecap="round" stroke-linejoin="round"/>
<path d="M43.1539 29.7084H40.1807V32.3022H43.1539V29.7084Z" stroke="#72788E" stroke-width="1.15" stroke-miterlimit="10" stroke-linecap="round" stroke-linejoin="round"/>
<path d="M43.1538 32.3021L40.8479 34.8959" stroke="#72788E" stroke-width="1.15" stroke-miterlimit="10" stroke-linecap="round" stroke-linejoin="round"/>
<path d="M48.5235 29.7084H45.5503V32.3022H48.5235V29.7084Z" stroke="#72788E" stroke-width="1.15" stroke-miterlimit="10" stroke-linecap="round" stroke-linejoin="round"/>
<path d="M48.5234 32.3021L46.2175 34.8959" stroke="#72788E" stroke-width="1.15" stroke-miterlimit="10" stroke-linecap="round" stroke-linejoin="round"/>
</svg>
