<svg width="88" height="87" viewBox="0 0 88 87" fill="none" xmlns="http://www.w3.org/2000/svg">
<path opacity="0.7" fill-rule="evenodd" clip-rule="evenodd" d="M68.3281 30L72.1256 0H70.1256L66.3281 30H68.3281Z" fill="#72788E"/>
<path opacity="0.2" fill-rule="evenodd" clip-rule="evenodd" d="M81.3281 85L87.6572 35H86.6572L80.3281 85H81.3281Z" fill="#373C4A"/>
<path fill-rule="evenodd" clip-rule="evenodd" d="M3 87L9.32911 37H6.32911L0 87H3Z" fill="#7AA95D"/>
<path d="M31.8457 74.0439H28.6494C28.332 74.0439 28.0742 73.7861 28.0742 73.4688V60.082C28.0742 59.7646 28.332 59.5068 28.6494 59.5068H31.8457C32.1631 59.5068 32.4209 59.7646 32.4209 60.082V73.4688C32.4209 73.7861 32.1631 74.0439 31.8457 74.0439ZM29.2246 72.8936H31.2705V60.6572H29.2246V72.8936Z" fill="#8CA95D"/>
<path d="M38.0957 74.0439H34.8994C34.582 74.0439 34.3242 73.7861 34.3242 73.4688V60.082C34.3242 59.7646 34.582 59.5068 34.8994 59.5068H38.0957C38.4131 59.5068 38.6709 59.7646 38.6709 60.082V73.4688C38.6709 73.7861 38.4131 74.0439 38.0957 74.0439ZM35.4746 72.8936H37.5205V60.6572H35.4746V72.8936Z" fill="#8CA95D"/>
<path d="M44.3496 74.0439H41.1533C40.8359 74.0439 40.5781 73.7861 40.5781 73.4688V60.082C40.5781 59.7646 40.8359 59.5068 41.1533 59.5068H44.3496C44.667 59.5068 44.9248 59.7646 44.9248 60.082V73.4688C44.9248 73.7861 44.667 74.0439 44.3496 74.0439ZM41.7285 72.8936H43.7744V60.6572H41.7285V72.8936Z" fill="#8CA95D"/>
<path d="M50.5996 74.0439H47.4033C47.0859 74.0439 46.8281 73.7861 46.8281 73.4688V60.082C46.8281 59.7646 47.0859 59.5068 47.4033 59.5068H50.5996C50.917 59.5068 51.1748 59.7646 51.1748 60.082V73.4688C51.1748 73.7861 50.917 74.0439 50.5996 74.0439ZM47.9785 72.8936H50.0244V60.6572H47.9785V72.8936Z" fill="#8CA95D"/>
<path d="M56.8516 74.0439H53.6553C53.3379 74.0439 53.0801 73.7861 53.0801 73.4688V60.082C53.0801 59.7646 53.3379 59.5068 53.6553 59.5068H56.8516C57.1689 59.5068 57.4268 59.7646 57.4268 60.082V73.4688C57.4268 73.7861 57.1689 74.0439 56.8516 74.0439ZM54.2305 72.8936H56.2764V60.6572H54.2305V72.8936Z" fill="#8CA95D"/>
<path d="M62.668 69.3506H60.2393C59.9219 69.3506 59.6641 69.0928 59.6641 68.7754V57.3779H25.8379V68.7754C25.8379 69.0928 25.5801 69.3506 25.2627 69.3506H22.835C21.2715 69.3506 20 68.0791 20 66.5166V51.6484C20 50.0859 21.2715 48.8145 22.835 48.8145H62.668C64.2305 48.8145 65.502 50.0859 65.502 51.6484V66.5166C65.502 68.0791 64.2305 69.3506 62.668 69.3506ZM60.8145 68.2002H62.668C63.5967 68.2002 64.3516 67.4453 64.3516 66.5166V51.6484C64.3516 50.7197 63.5967 49.9648 62.668 49.9648H22.835C21.9062 49.9648 21.1504 50.7197 21.1504 51.6484V66.5166C21.1504 67.4453 21.9062 68.2002 22.835 68.2002H24.6875V56.8027C24.6875 56.4854 24.9453 56.2275 25.2627 56.2275H60.2393C60.5566 56.2275 60.8145 56.4854 60.8145 56.8027V68.2002Z" fill="#72788E"/>
<path d="M56.8525 49.9648H28.4463C28.1289 49.9648 27.8711 49.707 27.8711 49.3896V34.5752C27.8711 34.2578 28.1289 34 28.4463 34H51.0449C51.1973 34 51.3438 34.0605 51.4512 34.1689L57.2588 39.9766C57.3672 40.084 57.4277 40.2305 57.4277 40.3828V49.3896C57.4277 49.707 57.1699 49.9648 56.8525 49.9648ZM29.0215 48.8145H56.2773V40.6211L50.8066 35.1504H29.0215V48.8145Z" fill="#72788E"/>
<path d="M56.8516 40.958H51.0439C50.7266 40.958 50.4688 40.7002 50.4688 40.3828V34.5752C50.4688 34.3428 50.6094 34.1328 50.8242 34.044C51.0381 33.9551 51.2861 34.003 51.4502 34.169L57.2578 39.9766C57.4229 40.1407 57.4717 40.3877 57.3828 40.6026C57.2939 40.8174 57.084 40.958 56.8516 40.958ZM51.6191 39.8077H55.4639L51.6191 35.9629V39.8077Z" fill="#72788E"/>
<path d="M43.6924 41.4561H31.8467C31.5293 41.4561 31.2715 41.1982 31.2715 40.8809C31.2715 40.5635 31.5293 40.3057 31.8467 40.3057H43.6924C44.0098 40.3057 44.2676 40.5635 44.2676 40.8809C44.2676 41.1982 44.0098 41.4561 43.6924 41.4561Z" fill="#72788E"/>
<path d="M53.6562 45.6445H31.8467C31.5293 45.6445 31.2715 45.3867 31.2715 45.0693C31.2715 44.752 31.5293 44.4941 31.8467 44.4941H53.6562C53.9736 44.4941 54.2314 44.752 54.2314 45.0693C54.2314 45.3867 53.9736 45.6445 53.6562 45.6445Z" fill="#72788E"/>
<path d="M30.249 53.5576H25.3486C25.0312 53.5576 24.7734 53.2998 24.7734 52.9824C24.7734 52.665 25.0312 52.4072 25.3486 52.4072H30.249C30.5664 52.4072 30.8242 52.665 30.8242 52.9824C30.8242 53.2998 30.5664 53.5576 30.249 53.5576Z" fill="#72788E"/>
</svg>
