<svg width="93" height="93" viewBox="0 0 93 93" fill="none" xmlns="http://www.w3.org/2000/svg">
<path opacity="0.7" fill-rule="evenodd" clip-rule="evenodd" d="M66.2158 23L69.1272 0H67.1272L64.2158 23H66.2158Z" fill="#72788E"/>
<path opacity="0.2" fill-rule="evenodd" clip-rule="evenodd" d="M83.8604 93L92.7211 23H91.7211L82.8604 93H83.8604Z" fill="#373C4A"/>
<path fill-rule="evenodd" clip-rule="evenodd" d="M3.3291 91L9.65822 41H6.65822L0.329102 91H3.3291Z" fill="#7AA95D"/>
<path d="M25.791 32.5747V67.9406L30.4208 69.6848V32.5747H25.791Z" fill="#E4EFD2"/>
<path d="M66.041 68.1133H64.8906V33.1504H26.3662V68.1133H25.2158V32.5752C25.2158 32.2578 25.4736 32 25.791 32H65.4658C65.7832 32 66.041 32.2578 66.041 32.5752V68.1133Z" fill="#72788E"/>
<path d="M54.5146 71.6748H36.9443V72.8252H54.5146V71.6748Z" fill="#72788E"/>
<path d="M66.041 40.9727H25.2158V36.4814H66.041V40.9727H66.041ZM26.3662 39.8223H64.8906V37.6318H26.3662V39.8223Z" fill="#72788E"/>
<path d="M36.7744 52.9873H29.166C28.8486 52.9873 28.5908 52.7295 28.5908 52.4121V43.9502C28.5908 43.6328 28.8486 43.375 29.166 43.375H36.7744C37.0918 43.375 37.3496 43.6328 37.3496 43.9502V52.4121C37.3496 52.7295 37.0918 52.9873 36.7744 52.9873ZM29.7412 51.8369H36.1992V44.5254H29.7412V51.8369Z" fill="#72788E"/>
<path d="M49.4326 52.9873H41.8242C41.5068 52.9873 41.249 52.7295 41.249 52.4121V43.9502C41.249 43.6328 41.5068 43.375 41.8242 43.375H49.4326C49.75 43.375 50.0078 43.6328 50.0078 43.9502V52.4121C50.0078 52.7295 49.75 52.9873 49.4326 52.9873ZM42.3994 51.8369H48.8574V44.5254H42.3994V51.8369Z" fill="#72788E"/>
<path d="M62.0918 52.9873H54.4834C54.166 52.9873 53.9082 52.7295 53.9082 52.4121V43.9502C53.9082 43.6328 54.166 43.375 54.4834 43.375H62.0918C62.4092 43.375 62.667 43.6328 62.667 43.9502V52.4121C62.667 52.7295 62.4092 52.9873 62.0918 52.9873ZM55.0586 51.8369H61.5166V44.5254H55.0586V51.8369Z" fill="#72788E"/>
<path d="M36.7744 66.7207H29.166C28.8486 66.7207 28.5908 66.4629 28.5908 66.1455V57.6836C28.5908 57.3662 28.8486 57.1084 29.166 57.1084H36.7744C37.0918 57.1084 37.3496 57.3662 37.3496 57.6836V66.1455C37.3496 66.4629 37.0918 66.7207 36.7744 66.7207ZM29.7412 65.5703H36.1992V58.2588H29.7412V65.5703Z" fill="#72788E"/>
<path d="M50.9385 72.8252H40.3193C40.002 72.8252 39.7441 72.5674 39.7441 72.25V57.6836C39.7441 57.3662 40.002 57.1084 40.3193 57.1084H50.9385C51.2559 57.1084 51.5137 57.3662 51.5137 57.6836V72.25C51.5137 72.5674 51.2559 72.8252 50.9385 72.8252ZM40.8945 71.6748H50.3633V58.2588H40.8945V71.6748Z" fill="#72788E"/>
<path d="M62.0918 66.7207H54.4834C54.166 66.7207 53.9082 66.4629 53.9082 66.1455V57.6836C53.9082 57.3662 54.166 57.1084 54.4834 57.1084H62.0918C62.4092 57.1084 62.667 57.3662 62.667 57.6836V66.1455C62.667 66.4629 62.4092 66.7207 62.0918 66.7207ZM55.0586 65.5703H61.5166V58.2588H55.0586V65.5703Z" fill="#72788E"/>
<path d="M46.2041 57.6836H45.0537V72.25H46.2041V57.6836Z" fill="#72788E"/>
<path d="M73.6836 78.6084H17.5742C17.2568 78.6084 16.999 78.3506 16.999 78.0332C16.999 77.7158 17.2568 77.458 17.5742 77.458H73.6836C74.001 77.458 74.2588 77.7158 74.2588 78.0332C74.2588 78.3506 74.001 78.6084 73.6836 78.6084Z" fill="#72788E"/>
<path d="M36.8545 75.0596H17.5742C17.2568 75.0596 16.999 74.8018 16.999 74.4844C16.999 71.6426 19.3115 69.3301 22.1533 69.3301C22.1826 69.3301 22.2119 69.3311 22.2412 69.333C23.3047 68.1885 24.7881 67.5381 26.3584 67.5381C27.7598 67.5381 29.0752 68.0459 30.1084 68.9766C30.8193 68.625 31.5918 68.4404 32.3652 68.4404C35.207 68.4404 37.5195 70.7529 37.5195 73.5947C37.5195 73.919 37.4854 74.2559 37.419 74.5957C37.3652 74.8652 37.1289 75.0596 36.8545 75.0596ZM18.1904 73.9092H36.3555C36.3652 73.8027 36.3691 73.6973 36.3691 73.5947C36.3691 71.3867 34.5732 69.5908 32.3652 69.5908C31.6455 69.5908 30.9531 69.7881 30.3086 70.1768C30.0781 70.3145 29.7813 70.2764 29.5947 70.0811C28.7402 69.1826 27.5908 68.6885 26.3584 68.6885C25.0254 68.6885 23.7715 69.2773 22.918 70.3047C22.7998 70.4463 22.6172 70.5215 22.4346 70.5107C22.3779 70.5068 22.3232 70.5 22.2676 70.4922C22.2295 70.4873 22.1924 70.4805 22.1533 70.4805C20.1406 70.4805 18.4697 71.9727 18.1904 73.9092Z" fill="#8CA95D"/>
<path d="M73.6836 75.0596H54.4033C54.1289 75.0596 53.8926 74.8652 53.8389 74.5957C53.7725 74.2559 53.7383 73.919 53.7383 73.5947C53.7383 70.7529 56.0508 68.4404 58.8926 68.4404C59.666 68.4404 60.4375 68.625 61.1494 68.9766C62.1826 68.0459 63.498 67.5381 64.8994 67.5381C66.4697 67.5381 67.9531 68.1885 69.0166 69.333C69.0479 69.3311 69.0762 69.3301 69.1045 69.3301C71.9463 69.3301 74.2588 71.6426 74.2588 74.4844C74.2588 74.8018 74.001 75.0596 73.6836 75.0596ZM54.9023 73.9092H73.0674C72.7881 71.9727 71.1172 70.4805 69.1045 70.4805C69.0654 70.4805 69.0283 70.4873 68.9902 70.4922C68.9346 70.5 68.8799 70.5069 68.8232 70.5108C68.6318 70.5205 68.458 70.4463 68.3398 70.3047C67.4863 69.2774 66.2324 68.6885 64.8994 68.6885C63.667 68.6885 62.5176 69.1826 61.6631 70.0811C61.4756 70.2774 61.1787 70.3164 60.9492 70.1768C60.3037 69.7881 59.6113 69.5908 58.8926 69.5908C56.6846 69.5908 54.8887 71.3867 54.8887 73.5947C54.8887 73.6973 54.8926 73.8027 54.9023 73.9092Z" fill="#8CA95D"/>
</svg>
