<svg width="89" height="88" viewBox="0 0 89 88" fill="none" xmlns="http://www.w3.org/2000/svg">
<path opacity="0.7" fill-rule="evenodd" clip-rule="evenodd" d="M68.3311 30L72.1285 0H70.1285L66.3311 30H68.3311Z" fill="#72788E"/>
<path opacity="0.2" fill-rule="evenodd" clip-rule="evenodd" d="M79.3311 88L88.1918 18H87.1918L78.3311 88H79.3311Z" fill="#373C4A"/>
<path fill-rule="evenodd" clip-rule="evenodd" d="M3.00098 87L9.33009 37H6.33009L0.000976562 87H3.00098Z" fill="#7AA95D"/>
<path d="M28.4342 31.5747H23.5742V73.2218H28.4342V31.5747Z" fill="#E4EFD2"/>
<path d="M47.791 67.0283C45.5771 67.0283 43.7754 65.2266 43.7754 63.0127C43.7754 60.7979 45.5772 58.9961 47.791 58.9961C50.0059 58.9961 51.8076 60.7979 51.8076 63.0127C51.8076 65.2266 50.0059 67.0283 47.791 67.0283ZM47.791 60.1465C46.2109 60.1465 44.9258 61.4326 44.9258 63.0127C44.9258 64.5928 46.2109 65.8779 47.791 65.8779C49.3711 65.8779 50.6572 64.5928 50.6572 63.0127C50.6572 61.4326 49.3711 60.1465 47.791 60.1465Z" fill="#8CA95D"/>
<path d="M47.7898 70.9463C47.617 70.9463 47.4431 70.8955 47.2947 70.794L45.9421 69.9014L44.3142 69.9912C43.9548 70.0166 43.6355 69.8193 43.4773 69.5088L42.7429 68.0566L41.2918 67.3223C40.9793 67.166 40.7888 66.8379 40.8084 66.4863L40.8992 64.8564L40.0037 63.4932C39.8093 63.1982 39.8103 62.8174 40.0046 62.5225L40.9021 61.1641L40.8113 59.5352C40.7947 59.1846 40.9832 58.8584 41.2918 58.7002L42.7468 57.9648L43.4793 56.5137C43.6375 56.1982 43.9685 56.0166 44.322 56.0303L45.9451 56.1201L47.3054 55.2227C47.6003 55.0273 47.9822 55.0283 48.2752 55.2217L49.6365 56.1211L51.2693 56.0332C51.6209 56.001 51.9441 56.2051 52.1033 56.5127L52.8386 57.9678L54.2898 58.7021C54.6023 58.8584 54.7927 59.1865 54.7732 59.5381L54.6824 61.168L55.575 62.5283C55.7683 62.8223 55.7683 63.2021 55.575 63.4961L54.6765 64.8574L54.7673 66.4863C54.7839 66.8369 54.5955 67.1631 54.2869 67.3213L52.8318 68.0566L52.0984 69.5078C51.9441 69.8193 51.6023 70.0059 51.2615 69.9912L49.6335 69.9014L48.2732 70.7988C48.1306 70.8965 47.9607 70.9463 47.7898 70.9463ZM47.6394 69.8398C47.6375 69.8408 47.6345 69.8428 47.6326 69.8447L47.6394 69.8398ZM47.9294 69.835L47.9353 69.8398C47.9334 69.8379 47.9314 69.8369 47.9294 69.835ZM46.1003 68.7412C46.2126 68.7412 46.323 68.7744 46.4168 68.8369L47.7878 69.7422L49.1589 68.8369C49.2615 68.7686 49.3787 68.7373 49.5076 68.7422L51.1511 68.833L51.8913 67.3691C51.946 67.2598 52.0349 67.1709 52.1443 67.1162L53.6091 66.375L53.5173 64.7314C53.5105 64.6074 53.5437 64.4854 53.612 64.3828L54.5173 63.0117L53.6169 61.6406C53.5495 61.5381 53.5163 61.416 53.5232 61.293L53.615 59.6494L52.1511 58.9082C52.0417 58.8535 51.9529 58.7647 51.8982 58.6553L51.157 57.1904L49.5095 57.2793C49.3786 57.2862 49.2634 57.252 49.1618 57.1846L47.7908 56.2793L46.4197 57.1846C46.3161 57.2529 46.1902 57.2832 46.071 57.2793L44.4275 57.1885L43.6882 58.6514C43.6326 58.7617 43.5437 58.8506 43.4343 58.9053L41.9695 59.6465L42.0613 61.2901C42.0681 61.4141 42.0349 61.5361 41.9665 61.6387L41.0613 63.0098L41.9646 64.3838C42.032 64.4863 42.0652 64.6084 42.0583 64.7315L41.9665 66.375L43.4304 67.1162C43.5398 67.1709 43.6287 67.2598 43.6833 67.3691L44.4246 68.833L46.0681 68.7422C46.0789 68.7422 46.0896 68.7412 46.1003 68.7412ZM51.072 68.9893C51.072 68.9902 51.071 68.9912 51.0701 68.9932L51.072 68.9893ZM41.8084 66.2949L41.8113 66.2969C41.8103 66.2959 41.8093 66.2959 41.8084 66.2949ZM54.614 63.1592H54.6238H54.614ZM53.7703 59.7275C53.7712 59.7285 53.7722 59.7285 53.7732 59.7295L53.7703 59.7275ZM44.2527 57.1787C44.2546 57.1787 44.2556 57.1787 44.2576 57.1787H44.2527ZM44.5076 57.0293L44.5066 57.0313C44.5066 57.0313 44.5066 57.0303 44.5076 57.0293Z" fill="#8CA95D"/>
<path d="M57.293 73.7969H51.2324V72.6465H56.7178V32.1504H24.1494V72.6465H44.1738V73.7969H23.5742C23.2568 73.7969 22.999 73.5391 22.999 73.2217V31.5752C22.999 31.2578 23.2568 31 23.5742 31H57.293C57.6104 31 57.8682 31.2578 57.8682 31.5752V73.2217C57.8682 73.5391 57.6104 73.7969 57.293 73.7969Z" fill="#72788E"/>
<path d="M53.75 37.4834H27.1172C26.7998 37.4834 26.542 37.2256 26.542 36.9082C26.542 36.5908 26.7998 36.333 27.1172 36.333H53.75C54.0674 36.333 54.3252 36.5908 54.3252 36.9082C54.3252 37.2256 54.0674 37.4834 53.75 37.4834Z" fill="#72788E"/>
<path d="M53.75 42.2617H27.1172C26.7998 42.2617 26.542 42.0039 26.542 41.6865C26.542 41.3691 26.7998 41.1113 27.1172 41.1113H53.75C54.0674 41.1113 54.3252 41.3691 54.3252 41.6865C54.3252 42.0039 54.0674 42.2617 53.75 42.2617Z" fill="#72788E"/>
<path d="M53.75 47.0391H27.1172C26.7998 47.0391 26.542 46.7813 26.542 46.4639C26.542 46.1465 26.7998 45.8887 27.1172 45.8887H53.75C54.0674 45.8887 54.3252 46.1465 54.3252 46.4639C54.3252 46.7813 54.0674 47.0391 53.75 47.0391Z" fill="#72788E"/>
<path d="M41.9414 51.8174H27.1172C26.7998 51.8174 26.542 51.5596 26.542 51.2422C26.542 50.9248 26.7998 50.667 27.1172 50.667H41.9414C42.2588 50.667 42.5166 50.9248 42.5166 51.2422C42.5166 51.5596 42.2588 51.8174 41.9414 51.8174Z" fill="#72788E"/>
<path d="M51.2324 78.9121C51.1055 78.9121 50.9795 78.8701 50.876 78.7881L47.6475 76.2402L44.5303 78.7002C44.3574 78.8359 44.1221 78.8604 43.9229 78.7666C43.7246 78.6699 43.5986 78.4697 43.5986 78.249V69.417C43.5986 69.0996 43.8564 68.8418 44.1738 68.8418C44.4912 68.8418 44.749 69.0996 44.749 69.417V77.0625L47.291 75.0566C47.5 74.8906 47.7949 74.8906 48.0039 75.0566L50.6572 77.1504V69.417C50.6572 69.0996 50.915 68.8418 51.2324 68.8418C51.5498 68.8418 51.8076 69.0996 51.8076 69.417V78.3369C51.8076 78.5576 51.6817 78.7578 51.4834 78.8545C51.4033 78.8926 51.3174 78.9121 51.2324 78.9121Z" fill="#8CA95D"/>
</svg>
