<svg width="88" height="87" viewBox="0 0 88 87" fill="none" xmlns="http://www.w3.org/2000/svg">
<path opacity="0.7" fill-rule="evenodd" clip-rule="evenodd" d="M69.3281 30L73.1256 0H71.1256L67.3281 30H69.3281Z" fill="#72788E"/>
<path opacity="0.2" fill-rule="evenodd" clip-rule="evenodd" d="M81.3281 85L87.6572 35H86.6572L80.3281 85H81.3281Z" fill="#373C4A"/>
<path fill-rule="evenodd" clip-rule="evenodd" d="M3 87L9.32911 37H6.32911L0 87H3Z" fill="#7AA95D"/>
<path d="M22.8474 35.575V54.3089L19.5742 56.9377H22.8474V70.8426H26.9629V35.575H22.8474Z" fill="#E4EFD2"/>
<path d="M58.1162 71.418H22.8486C22.5312 71.418 22.2734 71.1602 22.2734 70.8428V58.5664C22.2734 58.249 22.5312 57.9912 22.8486 57.9912C23.166 57.9912 23.4238 58.249 23.4238 58.5664V70.2676H57.541V49.1152C57.541 48.7979 57.7988 48.54 58.1162 48.54C58.4336 48.54 58.6914 48.7979 58.6914 49.1152V70.8428C58.6914 71.1602 58.4336 71.418 58.1162 71.418Z" fill="#72788E"/>
<path d="M45.2227 50.6123H30.583C30.2656 50.6123 30.0078 50.3545 30.0078 50.0371C30.0078 49.7197 30.2656 49.4619 30.583 49.4619H45.2227C45.54 49.4619 45.7979 49.7197 45.7979 50.0371C45.7979 50.3545 45.54 50.6123 45.2227 50.6123Z" fill="#72788E"/>
<path d="M52.7637 58.6631H41.4268C41.1094 58.6631 40.8516 58.4053 40.8516 58.0879C40.8516 57.7705 41.1094 57.5127 41.4268 57.5127H52.7637C53.0811 57.5127 53.3389 57.7705 53.3389 58.0879C53.3389 58.4053 53.0811 58.6631 52.7637 58.6631Z" fill="#8CA95D"/>
<path d="M40.4824 65.0703H26.9639C26.6465 65.0703 26.3887 64.8125 26.3887 64.4951C26.3887 64.1777 26.6465 63.9199 26.9639 63.9199H40.4824C40.7998 63.9199 41.0576 64.1777 41.0576 64.4951C41.0576 64.8125 40.7998 65.0703 40.4824 65.0703Z" fill="#8CA95D"/>
<path d="M49.6406 41.9043H47.0947C46.7773 41.9043 46.5195 41.6465 46.5195 41.3291C46.5195 41.0117 46.7773 40.7539 47.0947 40.7539H49.6406C49.958 40.7539 50.2158 41.0117 50.2158 41.3291C50.2158 41.6465 49.958 41.9043 49.6406 41.9043Z" fill="#72788E"/>
<path d="M52.9414 53.7842H50.3955C50.0781 53.7842 49.8203 53.5264 49.8203 53.209C49.8203 52.8916 50.0781 52.6338 50.3955 52.6338H52.9414C53.2588 52.6338 53.5166 52.8916 53.5166 53.209C53.5166 53.5264 53.2588 53.7842 52.9414 53.7842Z" fill="#72788E"/>
<path d="M53.9141 68.0283H51.4014C51.084 68.0283 50.8262 67.7705 50.8262 67.4531C50.8262 67.1357 51.084 66.8779 51.4014 66.8779H53.9141C54.2314 66.8779 54.4893 67.1357 54.4893 67.4531C54.4893 67.7705 54.2314 68.0283 53.9141 68.0283Z" fill="#72788E"/>
<path d="M35.7402 43.3545H24.9053C24.5879 43.3545 24.3301 43.0967 24.3301 42.7793C24.3301 42.4619 24.5879 42.2041 24.9053 42.2041H35.7402C36.0576 42.2041 36.3154 42.4619 36.3154 42.7793C36.3154 43.0967 36.0576 43.3545 35.7402 43.3545Z" fill="#8CA95D"/>
<path d="M33.1264 57.5127H19.5747C19.3305 57.5127 19.1137 57.3584 19.0327 57.1279C18.9516 56.8984 19.0248 56.6416 19.2143 56.4893L22.2729 54.0332V35.5752C22.2729 35.2578 22.5307 35 22.8481 35H58.1157C58.4331 35 58.6909 35.2578 58.6909 35.5752V44.5166L61.52 46.9736C61.7016 47.1318 61.7661 47.3848 61.6821 47.6094C61.5981 47.834 61.3832 47.9834 61.143 47.9834H51.4008C51.0834 47.9834 50.8256 47.7256 50.8256 47.4082C50.8256 47.0908 51.0834 46.833 51.4008 46.833H59.604L57.7387 45.2139C57.6127 45.1045 57.5405 44.9463 57.5405 44.7793V36.1504H23.4233V54.3086C23.4233 54.4824 23.3442 54.6475 23.2084 54.7568L21.2084 56.3623H33.1264C33.4438 56.3623 33.7016 56.6201 33.7016 56.9375C33.7016 57.2549 33.4438 57.5127 33.1264 57.5127Z" fill="#72788E"/>
<path d="M67.7598 68.8984H58.1162C57.7988 68.8984 57.541 68.6406 57.541 68.3232V49.1152C57.541 48.7979 57.7988 48.54 58.1162 48.54C58.4336 48.54 58.6914 48.7979 58.6914 49.1152V67.748H67.1846V40.7109H58.6914V44.541C58.6914 44.8584 58.4336 45.1162 58.1162 45.1162C57.7988 45.1162 57.541 44.8584 57.541 44.541V40.1357C57.541 39.8184 57.7988 39.5605 58.1162 39.5605H67.7598C68.0771 39.5605 68.335 39.8184 68.335 40.1357V68.3232C68.335 68.6406 68.0771 68.8984 67.7598 68.8984Z" fill="#72788E"/>
<path d="M65.7695 52.9102H61.1436C60.8262 52.9102 60.5684 52.6523 60.5684 52.335C60.5684 52.0176 60.8262 51.7598 61.1436 51.7598H65.7695C66.0869 51.7598 66.3447 52.0176 66.3447 52.335C66.3447 52.6523 66.0869 52.9102 65.7695 52.9102Z" fill="#72788E"/>
<path d="M61.1436 63.332H58.1162C57.7988 63.332 57.541 63.0742 57.541 62.7568C57.541 62.4395 57.7988 62.1816 58.1162 62.1816H61.1436C61.4609 62.1816 61.7188 62.4395 61.7188 62.7568C61.7188 63.0742 61.4609 63.332 61.1436 63.332Z" fill="#72788E"/>
</svg>
