<svg width="103" height="93" viewBox="0 0 103 93" fill="none" xmlns="http://www.w3.org/2000/svg">
<path opacity="0.7" fill-rule="evenodd" clip-rule="evenodd" d="M66.2178 23L69.1292 0H67.1292L64.2178 23H66.2178Z" fill="#72788E"/>
<path opacity="0.2" fill-rule="evenodd" clip-rule="evenodd" d="M93.8643 93L102.725 23H101.725L92.8643 93H93.8643Z" fill="#373C4A"/>
<path fill-rule="evenodd" clip-rule="evenodd" d="M3.33203 91L9.66115 41H6.66115L0.332031 91H3.33203Z" fill="#7AA95D"/>
<g clip-path="url(#clip0)">
<path d="M24.6936 40.5748H20.5781V75.8424H24.6936V40.5748Z" fill="#E4EFD2"/>
<path d="M53.9609 76.418H20.5781C20.2607 76.418 20.0029 76.1602 20.0029 75.8428V40.5752C20.0029 40.2578 20.2607 40 20.5781 40H55.8457C56.1631 40 56.4209 40.2578 56.4209 40.5752V54.6768H55.2705V41.1504H21.1533V75.2676H53.9609V76.418Z" fill="#72788E"/>
<path d="M43.5283 76.418H32.8955V40H43.5283V76.418ZM34.0459 75.2676H42.3779V41.1504H34.0459V75.2676Z" fill="#72788E"/>
<path d="M34.0459 50.1035H20.0029V45.9834H34.0459V50.1035ZM21.1533 48.9531H32.8955V47.1338H21.1533V48.9531Z" fill="#72788E"/>
<path d="M56.4209 50.1035H42.3779V45.9834H56.4209V50.1035ZM43.5283 48.9531H55.2705V47.1338H43.5283V48.9531Z" fill="#72788E"/>
<path d="M65.2832 76.7002C59.4912 76.7002 54.7793 71.9883 54.7793 66.1973C54.7793 60.4062 59.4912 55.6943 65.2832 55.6943C71.0742 55.6943 75.7861 60.4062 75.7861 66.1973C75.7861 71.9883 71.0742 76.7002 65.2832 76.7002ZM65.2832 56.8447C60.126 56.8447 55.9297 61.04 55.9297 66.1973C55.9297 71.3545 60.126 75.5498 65.2832 75.5498C70.4404 75.5498 74.6357 71.3545 74.6357 66.1973C74.6357 61.04 70.4404 56.8447 65.2832 56.8447Z" fill="#8CA95D"/>
<path d="M65.2787 82.9287C65.0365 82.9287 64.7933 82.8564 64.5804 82.7109L61.4144 80.6191L57.6117 80.831C57.1029 80.8447 56.6517 80.5859 56.4281 80.1484L54.7142 76.7588L51.3265 75.0459C50.8832 74.8242 50.6127 74.3584 50.642 73.8603L50.8529 70.0576L48.7631 66.876C48.4877 66.4599 48.4877 65.9209 48.764 65.5029L50.8597 62.3281L50.6488 58.5254C50.6254 58.0283 50.8929 57.5664 51.3314 57.3418L54.7211 55.6279L56.434 52.2412C56.6547 51.7969 57.1332 51.5303 57.6195 51.5557L61.4213 51.7676L64.5951 49.6709C65.0131 49.3955 65.5521 49.3955 65.9701 49.6709L69.1449 51.7686L72.9554 51.5625C73.4554 51.5537 73.9115 51.8047 74.1371 52.2422L75.8519 55.6348L79.2386 57.3477C79.683 57.5693 79.9535 58.0361 79.9242 58.5332L79.7123 62.3359L81.7963 65.5107C82.0717 65.9268 82.0717 66.4668 81.7953 66.8848L79.6986 70.0586L79.9105 73.8613C79.934 74.3574 79.6664 74.8193 79.2289 75.0449L75.8383 76.7588L74.1254 80.1465C73.9037 80.5898 73.4457 80.8643 72.9398 80.8311L69.1381 80.6191L65.9642 82.7158C65.7572 82.8574 65.5189 82.9287 65.2787 82.9287ZM65.2357 81.7559C65.266 81.7559 65.3295 81.7588 65.3295 81.7568L68.6625 79.5547C68.766 79.4863 68.8861 79.46 69.0121 79.46L73.0052 79.6826C73.0443 79.6865 73.0814 79.6641 73.098 79.6299L74.8978 76.0713C74.9525 75.9619 75.0414 75.8731 75.1507 75.8184L78.7064 74.0205C78.7406 74.0029 78.764 73.9629 78.7621 73.9209L78.5394 69.9326C78.5326 69.8086 78.5658 69.6865 78.6341 69.583L80.8363 66.25C80.8578 66.2178 80.8578 66.1758 80.8363 66.1435L78.6469 62.8086C78.5795 62.706 78.5463 62.584 78.5531 62.4609L78.7758 58.4678C78.7777 58.4287 78.7562 58.3916 78.7221 58.375L75.1644 56.5752C75.0551 56.5205 74.9662 56.4316 74.9115 56.3223L73.1137 52.7666C73.0951 52.7334 73.0678 52.7197 73.014 52.7109L69.018 52.9268C68.8959 52.9365 68.7728 52.9004 68.6693 52.832L65.3353 50.6299C65.3041 50.6084 65.2611 50.6084 65.2299 50.6299L61.8969 52.832C61.7933 52.8994 61.6713 52.9268 61.5473 52.9268L57.5541 52.7041C57.5189 52.7022 57.4789 52.7217 57.4613 52.7568L55.6615 56.3154C55.6068 56.4248 55.518 56.5137 55.4086 56.5684L51.8529 58.3662C51.8178 58.3848 51.7953 58.4238 51.7973 58.4658L52.019 62.4541C52.0258 62.5781 51.9926 62.7002 51.9242 62.8027L49.7231 66.1367C49.7016 66.1699 49.7016 66.2109 49.7231 66.2432L51.9184 69.585C51.9857 69.6875 52.019 69.8096 52.0121 69.9326L51.7904 73.9258C51.7875 73.9658 51.809 74.0019 51.8432 74.0185L55.4018 75.8183C55.5111 75.873 55.6 75.9619 55.6547 76.0713L57.4525 79.6269C57.4711 79.6611 57.5102 79.6787 57.5521 79.6826L61.5404 79.4599C61.6693 79.458 61.7865 79.4863 61.89 79.5547L65.223 81.7568C65.223 81.7559 65.2279 81.7559 65.2357 81.7559Z" fill="#8CA95D"/>
<path d="M64.6851 69.7949C64.5376 69.7949 64.3911 69.7383 64.2788 69.626L60.6772 66.0254C60.4526 65.8008 60.4526 65.4375 60.6772 65.2129C60.9019 64.9883 61.2651 64.9883 61.4897 65.2129L64.6851 68.4063L69.4907 63.6025C69.7153 63.3779 70.0786 63.3779 70.3032 63.6025C70.5278 63.8271 70.5278 64.1904 70.3032 64.415L65.0913 69.626C64.979 69.7383 64.8325 69.7949 64.6851 69.7949Z" fill="#8CA95D"/>
</g>
<defs>
<clipPath id="clip0">
<rect width="61.9994" height="42.9287" fill="white" transform="translate(20.0029 40)"/>
</clipPath>
</defs>
</svg>
