<svg width="96" height="97" viewBox="0 0 96 97" fill="none" xmlns="http://www.w3.org/2000/svg">
<path opacity="0.7" fill-rule="evenodd" clip-rule="evenodd" d="M35.332 30L39.1295 0H37.1295L33.332 30H35.332Z" fill="#72788E"/>
<path opacity="0.2" fill-rule="evenodd" clip-rule="evenodd" d="M87.458 97L95.0529 37H94.0529L86.458 97H87.458Z" fill="#373C4A"/>
<path fill-rule="evenodd" clip-rule="evenodd" d="M3.33203 91L9.66115 41H6.66115L0.332031 91H3.33203Z" fill="#7AA95D"/>
<path d="M55.4346 49.9658H54.2842V79.6856H55.4346V49.9658Z" fill="#72788E"/>
<path d="M68.9707 49.9658H67.8203V79.6856H68.9707V49.9658Z" fill="#72788E"/>
<path d="M50.2357 49.9656H46.7676V79.6854H50.2357V49.9656Z" fill="#E4EFD2"/>
<path d="M76.4873 80.2607H46.7676C46.4502 80.2607 46.1924 80.0029 46.1924 79.6855V49.9658C46.1924 49.6484 46.4502 49.3906 46.7676 49.3906H76.4873C76.8047 49.3906 77.0625 49.6484 77.0625 49.9658V79.6856C77.0625 80.0029 76.8047 80.2607 76.4873 80.2607ZM47.3428 79.1104H75.9121V50.541H47.3428V79.1104Z" fill="#72788E"/>
<path d="M76.4873 50.541H46.7676C46.4502 50.541 46.1924 50.2832 46.1924 49.9658V43.6631C46.1924 43.3457 46.4502 43.0879 46.7676 43.0879H76.4873C76.8047 43.0879 77.0625 43.3457 77.0625 43.6631V49.9658C77.0625 50.2832 76.8047 50.541 76.4873 50.541ZM47.3428 49.3906H75.9121V44.2383H47.3428V49.3906Z" fill="#8CA95D"/>
<path d="M76.4873 39.6875H46.7676C46.4502 39.6875 46.1924 39.4297 46.1924 39.1123V33.5752C46.1924 33.2578 46.4502 33 46.7676 33H76.4873C76.8047 33 77.0625 33.2578 77.0625 33.5752V39.1123C77.0625 39.4297 76.8047 39.6875 76.4873 39.6875ZM47.3428 38.5371H75.9121V34.1504H47.3428V38.5371Z" fill="#8CA95D"/>
<path d="M73.957 44.2383H43.9131C43.5957 44.2383 43.3379 43.9805 43.3379 43.6631V39.1123C43.3379 38.7949 43.5957 38.5371 43.9131 38.5371H73.957C74.2744 38.5371 74.5322 38.7949 74.5322 39.1123V43.6631C74.5322 43.9805 74.2744 44.2383 73.957 44.2383ZM44.4883 43.0879H73.3818V39.6875H44.4883V43.0879Z" fill="#8CA95D"/>
<path d="M73.2149 47.3897H65.0977C64.7803 47.3897 64.5225 47.1318 64.5225 46.8145C64.5225 46.4971 64.7803 46.2393 65.0977 46.2393H73.2149C73.5322 46.2393 73.7901 46.4971 73.7901 46.8145C73.7901 47.1318 73.5322 47.3897 73.2149 47.3897Z" fill="#8CA95D"/>
<path d="M55.1973 36.919H50.0693C49.752 36.919 49.4941 36.6611 49.4941 36.3438C49.4941 36.0264 49.7519 35.7686 50.0693 35.7686H55.1973C55.5146 35.7686 55.7725 36.0264 55.7725 36.3438C55.7725 36.6611 55.5146 36.919 55.1973 36.919Z" fill="#8CA95D"/>
<path d="M43.9131 79.1104H21.0479V80.2607H43.9131V79.1104Z" fill="#72788E"/>
<path d="M35.7762 74.504L21.0029 75.6617L21.0928 76.8082L35.8661 75.6504L35.7762 74.504Z" fill="#72788E"/>
<path d="M22.5809 69.833L22.5049 70.9814L34.2871 71.7617L34.3631 70.6133L22.5809 69.833Z" fill="#72788E"/>
<path d="M27.5216 76.6349L27.3994 77.7776L43.8516 79.5374L43.9738 78.3948L27.5216 76.6349Z" fill="#72788E"/>
<path d="M26.5156 67.0332L26.3887 68.1758L40.1347 69.7031L40.2617 68.5605L26.5156 67.0332Z" fill="#72788E"/>
<path d="M29.2857 71.8642L29.1396 73.0049L41.5166 74.5898L41.6627 73.4492L29.2857 71.8642Z" fill="#72788E"/>
<path d="M35.7762 64.7862L21.0029 65.944L21.0928 67.0905L35.8661 65.9327L35.7762 64.7862Z" fill="#72788E"/>
<path d="M22.5808 60.1152L22.5049 61.2637L34.2871 62.043L34.3631 60.8945L22.5808 60.1152Z" fill="#72788E"/>
<path d="M27.4817 55.3437L27.4395 56.4922L43.8917 57.0967L43.9339 55.9482L27.4817 55.3437Z" fill="#72788E"/>
<path d="M26.5156 57.3145L26.3887 58.457L40.1347 59.9844L40.2617 58.8418L26.5156 57.3145Z" fill="#72788E"/>
<path d="M29.2857 62.1455L29.1396 63.2861L41.5166 64.8711L41.6627 63.7304L29.2857 62.1455Z" fill="#72788E"/>
</svg>
