<svg width="88" height="87" viewBox="0 0 88 87" fill="none" xmlns="http://www.w3.org/2000/svg">
<path opacity="0.7" fill-rule="evenodd" clip-rule="evenodd" d="M68.3281 30L72.1256 0H70.1256L66.3281 30H68.3281Z" fill="#72788E"/>
<path opacity="0.2" fill-rule="evenodd" clip-rule="evenodd" d="M81.3281 85L87.6572 35H86.6572L80.3281 85H81.3281Z" fill="#373C4A"/>
<path fill-rule="evenodd" clip-rule="evenodd" d="M3 87L9.32911 37H6.32911L0 87H3Z" fill="#7AA95D"/>
<path d="M46.1055 67.6338H27.9336C23.5596 67.6338 20 64.0742 20 59.7002V44.7568C20 44.4395 20.2578 44.1816 20.5752 44.1816H59.1162C59.4336 44.1816 59.6914 44.4395 59.6914 44.7568V59.7002C59.6914 60.2158 59.6406 60.7324 59.542 61.2373C59.4805 61.5488 59.1816 61.75 58.8662 61.6904C58.5547 61.6289 58.3525 61.3262 58.4131 61.0146C58.498 60.584 58.541 60.1416 58.541 59.7002V45.332H21.1504V59.7002C21.1504 63.4404 24.1934 66.4834 27.9336 66.4834H46.1055C46.4229 66.4834 46.6807 66.7412 46.6807 67.0586C46.6807 67.376 46.4229 67.6338 46.1055 67.6338Z" fill="#72788E"/>
<path d="M59.6266 72.3184H48.8756C47.526 72.3184 46.316 71.6201 45.6403 70.4512C44.9645 69.2812 44.9635 67.8848 45.6383 66.7139L50.8278 57.7119V51.9902C50.8278 51.6729 51.0856 51.415 51.403 51.415H57.0992C57.4166 51.415 57.6744 51.6729 57.6744 51.9902V57.7119L62.8639 66.7139C63.5387 67.8838 63.5387 69.2812 62.8629 70.4502C62.1871 71.6201 60.9772 72.3184 59.6266 72.3184ZM51.9781 52.5654V57.8662C51.9781 57.9668 51.9518 58.0664 51.901 58.1533L46.6344 67.2881C46.1676 68.0986 46.1686 69.0654 46.6364 69.876C47.1041 70.6846 47.941 71.168 48.8756 71.168H59.6266C60.5612 71.168 61.399 70.6846 61.8668 69.875C62.3346 69.0654 62.3346 68.0986 61.8678 67.2881L56.6012 58.1533C56.5504 58.0664 56.524 57.9668 56.524 57.8662V52.5654H51.9781Z" fill="#8CA95D"/>
<path d="M57.4121 52.5654H51.4023C50.501 52.5654 49.7676 51.832 49.7676 50.9307C49.7676 50.0303 50.501 49.2969 51.4023 49.2969H57.4121C58.3125 49.2969 59.0459 50.0303 59.0459 50.9307C59.0459 51.832 58.3125 52.5654 57.4121 52.5654ZM51.4023 50.4473C51.1348 50.4473 50.918 50.6641 50.918 50.9307C50.918 51.1982 51.1348 51.415 51.4023 51.415H57.4121C57.6787 51.415 57.8955 51.1982 57.8955 50.9307C57.8955 50.6641 57.6787 50.4473 57.4121 50.4473H51.4023Z" fill="#8CA95D"/>
<path d="M64.8555 72.3184C62.9678 72.3184 61.4316 70.7822 61.4316 68.8945V53.9902C61.4316 53.6729 61.6895 53.415 62.0068 53.415H67.7031C68.0205 53.415 68.2783 53.6729 68.2783 53.9902V68.8945C68.2783 70.7822 66.7432 72.3184 64.8555 72.3184ZM62.582 54.5654V68.8945C62.582 70.1484 63.6016 71.168 64.8555 71.168C66.1084 71.168 67.1279 70.1484 67.1279 68.8945V54.5654H62.582Z" fill="#8CA95D"/>
<path d="M68.0146 54.5654H62.0059C61.1045 54.5654 60.3711 53.832 60.3711 52.9307C60.3711 52.0303 61.1045 51.2969 62.0059 51.2969H68.0146C68.916 51.2969 69.6494 52.0303 69.6494 52.9307C69.6494 53.832 68.916 54.5654 68.0146 54.5654ZM62.0059 52.4473C61.7383 52.4473 61.5215 52.6641 61.5215 52.9307C61.5215 53.1982 61.7383 53.415 62.0059 53.415H68.0146C68.2822 53.415 68.499 53.1982 68.499 52.9307C68.499 52.6641 68.2822 52.4473 68.0146 52.4473H62.0059Z" fill="#8CA95D"/>
<path d="M64.2451 58.4414H62.0068C61.6895 58.4414 61.4316 58.1836 61.4316 57.8662C61.4316 57.5488 61.6895 57.291 62.0068 57.291H64.2451C64.5625 57.291 64.8203 57.5488 64.8203 57.8662C64.8203 58.1836 64.5625 58.4414 64.2451 58.4414Z" fill="#8CA95D"/>
<path d="M64.2451 60.9648H62.0068C61.6895 60.9648 61.4316 60.707 61.4316 60.3896C61.4316 60.0723 61.6895 59.8145 62.0068 59.8145H64.2451C64.5625 59.8145 64.8203 60.0723 64.8203 60.3896C64.8203 60.707 64.5625 60.9648 64.2451 60.9648Z" fill="#8CA95D"/>
<path d="M64.2451 63.4873H62.0068C61.6895 63.4873 61.4316 63.2295 61.4316 62.9121C61.4316 62.5947 61.6895 62.3369 62.0068 62.3369H64.2451C64.5625 62.3369 64.8203 62.5947 64.8203 62.9121C64.8203 63.2295 64.5625 63.4873 64.2451 63.4873Z" fill="#8CA95D"/>
<path d="M26.4424 39.1182C25.0312 39.1182 23.8828 37.9697 23.8828 36.5586C23.8828 35.1475 25.0312 34 26.4424 34C27.8535 34 29.002 35.1475 29.002 36.5586C29.002 37.9697 27.8535 39.1182 26.4424 39.1182ZM26.4424 35.1504C25.665 35.1504 25.0332 35.7822 25.0332 36.5586C25.0332 37.3359 25.665 37.9678 26.4424 37.9678C27.2197 37.9678 27.8516 37.3359 27.8516 36.5586C27.8516 35.7822 27.2197 35.1504 26.4424 35.1504Z" fill="#72788E"/>
<path d="M39.1445 45.166C38.8271 45.166 38.5693 44.9082 38.5693 44.5908C38.5693 43.8145 37.9375 43.1826 37.1602 43.1826C36.3838 43.1826 35.752 43.8145 35.752 44.5908C35.752 44.9082 35.4941 45.166 35.1768 45.166C34.8594 45.166 34.6016 44.9082 34.6016 44.5908C34.6016 43.1797 35.749 42.0322 37.1602 42.0322C38.5713 42.0322 39.7197 43.1797 39.7197 44.5908C39.7197 44.9082 39.4619 45.166 39.1445 45.166Z" fill="#72788E"/>
<path d="M49.3408 41.1504C47.9297 41.1504 46.7812 40.002 46.7812 38.5908C46.7812 37.1797 47.9297 36.0322 49.3408 36.0322C50.752 36.0322 51.9004 37.1797 51.9004 38.5908C51.9004 40.002 50.752 41.1504 49.3408 41.1504ZM49.3408 37.1826C48.5635 37.1826 47.9316 37.8145 47.9316 38.5908C47.9316 39.3682 48.5635 40 49.3408 40C50.1182 40 50.75 39.3682 50.75 38.5908C50.75 37.8145 50.1182 37.1826 49.3408 37.1826Z" fill="#72788E"/>
<path d="M29.0106 45.332C28.9091 45.332 28.8065 45.3047 28.7128 45.248L23.9403 42.3467C23.6688 42.1816 23.5829 41.8281 23.7479 41.5566C23.914 41.2861 24.2645 41.2002 24.538 41.3642L29.3104 44.2656C29.5819 44.4306 29.6679 44.7842 29.5028 45.0556C29.3944 45.2334 29.205 45.332 29.0106 45.332Z" fill="#72788E"/>
<path d="M53.2507 45.166C53.0846 45.166 52.9206 45.0947 52.8063 44.9561C52.6052 44.7109 52.6403 44.3486 52.8854 44.1465L57.7507 40.1465C57.9968 39.9453 58.3581 39.9795 58.5602 40.2256C58.7614 40.4707 58.7262 40.833 58.4811 41.0352L53.6159 45.0352C53.5085 45.123 53.3796 45.166 53.2507 45.166Z" fill="#72788E"/>
<path d="M44.4148 45.3321C44.1657 45.3321 43.9362 45.169 43.863 44.918L42.2653 39.4385C42.1765 39.1338 42.3513 38.8145 42.656 38.7256C42.9636 38.6387 43.28 38.8125 43.3689 39.1162L44.9665 44.5957C45.0554 44.9004 44.8806 45.2198 44.5759 45.3086C44.5222 45.3243 44.4675 45.3321 44.4148 45.3321Z" fill="#72788E"/>
<path d="M45.0377 60.2754H24.4723C24.2515 60.2754 24.0162 60.1269 23.9205 59.9277C23.8248 59.7285 23.856 59.4531 23.9937 59.2803L31.6412 49.5312C31.7437 49.3994 31.9264 49.3056 32.0933 49.2978C32.2564 49.2812 32.4527 49.3672 32.5689 49.4892L35.6822 52.8398L37.7047 50.8047C37.8199 50.6894 38.0201 50.5976 38.1695 50.625C38.3316 50.6328 38.5094 50.7217 38.6129 50.8467L45.5123 59.2754C45.6539 59.4482 45.6861 59.7265 45.5894 59.9277C45.4937 60.1269 45.2584 60.2754 45.0377 60.2754ZM25.5767 59.125H43.9029L38.1012 52.0371L36.1031 54.0469C35.9879 54.1621 35.8014 54.2461 35.6373 54.2265C35.4879 54.2197 35.3238 54.1426 35.2203 54.0322L32.1568 50.7363L25.5767 59.125Z" fill="#72788E"/>
<path d="M38.9549 58.6211C38.784 58.6211 38.6151 58.5449 38.5018 58.4004L36.288 55.5693C36.0926 55.3193 36.1366 54.957 36.3866 54.7617C36.6376 54.5664 36.9979 54.6103 37.1942 54.8603L39.4081 57.6914C39.6034 57.9414 39.5594 58.3037 39.3094 58.499C39.204 58.581 39.079 58.6211 38.9549 58.6211Z" fill="#72788E"/>
</svg>
