<svg width="12" height="12" viewBox="0 0 12 12" fill="none" xmlns="http://www.w3.org/2000/svg">
<path d="M6 0C2.69063 0 0 2.69063 0 6C0 9.30937 2.69063 12 6 12C9.30937 12 12 9.30937 12 6C12 2.69063 9.30937 0 6 0ZM8.20547 8.46328C8.10703 8.56172 7.98047 8.61094 7.85156 8.61094C7.72266 8.61094 7.59609 8.56172 7.49766 8.46328L5.64609 6.60469C5.55234 6.51094 5.50078 6.38438 5.50078 6.25078V3C5.50078 2.72344 5.72578 2.50078 6 2.50078C6.27422 2.50078 6.49922 2.72344 6.49922 3V6.04219L8.20312 7.75547C8.4 7.95 8.4 8.26641 8.20547 8.46328Z" fill="#7AA95D"/>
</svg>
