<svg width="12" height="12" viewBox="0 0 12 12" fill="none" xmlns="http://www.w3.org/2000/svg">
<path fill-rule="evenodd" clip-rule="evenodd" d="M6 12C9.31371 12 12 9.31371 12 6C12 2.68629 9.31371 0 6 0C2.68629 0 0 2.68629 0 6C0 9.31371 2.68629 12 6 12ZM6.8 2.57141C6.8 2.12958 6.44183 1.77141 6 1.77141C5.55817 1.77141 5.2 2.12958 5.2 2.57141V6.42855C5.2 6.67158 5.31047 6.90143 5.50024 7.05325L7.6431 8.76753C7.98811 9.04354 8.49154 8.98761 8.76755 8.6426C9.04356 8.29759 8.98762 7.79415 8.64261 7.51814L6.8 6.04405V2.57141Z" fill="#E9EBEF"/>
</svg>
