<svg width="13" height="9" viewBox="0 0 13 9" fill="none" xmlns="http://www.w3.org/2000/svg">
<path d="M6.49987 8.65344C9.36717 8.65344 11.8384 6.96319 12.9736 4.52403C13.0085 4.45012 13.0085 4.36365 12.9736 4.28834C11.8384 1.8492 9.36716 0.158929 6.49987 0.158929C3.63259 0.158929 1.16134 1.84918 0.0261364 4.28834C-0.00872898 4.36226 -0.00872898 4.44872 0.0261364 4.52403C1.16134 6.96319 3.63257 8.65344 6.49987 8.65344ZM6.49987 1.47542C8.119 1.47542 9.42993 2.78775 9.42993 4.40549C9.42993 6.02462 8.11761 7.33554 6.49987 7.33554C4.88074 7.33554 3.56982 6.02323 3.56982 4.40549C3.56982 2.78775 4.88214 1.47542 6.49987 1.47542Z" fill="#CDD1DF"/>
<path d="M6.49999 2.53112C5.46405 2.53112 4.62426 3.37091 4.62426 4.40686C4.62426 5.4428 5.46405 6.28259 6.49999 6.28259C7.53594 6.28259 8.37573 5.4428 8.37573 4.40686C8.37573 3.37091 7.53594 2.53112 6.49999 2.53112Z" fill="#CDD1DF"/>
</svg>
