<svg width="49" height="68" viewBox="0 0 49 68" fill="none" xmlns="http://www.w3.org/2000/svg">
<circle cx="24.4993" cy="24.5" r="16.8137" fill="white"/>
<path d="M24.5 0C10.9906 0 0 10.9266 0 24.3571C0 41.0247 21.9251 65.4939 22.8586 66.5274C23.7354 67.4983 25.2662 67.4966 26.1414 66.5274C27.0749 65.4939 49 41.0247 49 24.3571C48.9997 10.9266 38.0092 0 24.5 0ZM24.5 38.8483C16.4543 38.8483 9.93197 32.364 9.93197 24.3652C9.93197 16.3664 16.4543 9.88205 24.5 9.88205C32.5457 9.88205 39.068 16.3664 39.068 24.3652C39.068 32.364 32.5457 38.8483 24.5 38.8483Z" fill="#72788E"/>
<path fill-rule="evenodd" clip-rule="evenodd" d="M25.5318 21.7152L21.469 17.308C21.4508 17.2883 21.4195 17.2897 21.403 17.3108L12.5005 28.7527C12.4782 28.7814 12.4985 28.8235 12.5347 28.8235H36.4673C36.504 28.8235 36.5241 28.7806 36.5009 28.752L28.4733 18.8665C28.457 18.8464 28.4271 18.8449 28.4089 18.8633L25.5944 21.7163C25.577 21.7339 25.5486 21.7334 25.5318 21.7152ZM31.6727 28.6526L25.8078 22.0257C25.7736 21.987 25.8228 21.931 25.865 21.9606L30.5058 25.2143C30.5132 25.2194 30.5188 25.2267 30.5218 25.2352L31.7459 28.6084C31.7623 28.6538 31.7046 28.6886 31.6727 28.6526Z" fill="#7AA95D"/>
</svg>
