<svg width="9" height="12" viewBox="0 0 9 12" fill="none" xmlns="http://www.w3.org/2000/svg">
<path d="M4.34595 0C1.94958 0 0 1.94958 0 4.34593C0 7.31987 3.8892 11.6858 4.05479 11.8702C4.21032 12.0434 4.48186 12.0431 4.63711 11.8702C4.8027 11.6858 8.6919 7.31987 8.6919 4.34593C8.69185 1.94958 6.7423 0 4.34595 0ZM4.34595 6.53248C3.14028 6.53248 2.15942 5.5516 2.15942 4.34593C2.15942 3.14025 3.1403 2.15939 4.34595 2.15939C5.5516 2.15939 6.53246 3.14028 6.53246 4.34595C6.53246 5.55162 5.5516 6.53248 4.34595 6.53248Z" fill="#7AA95D"/>
</svg>
