<svg width="23" height="15" viewBox="0 0 23 15" fill="none" xmlns="http://www.w3.org/2000/svg">
<path d="M22.795 12.6436C22.7332 12.5401 22.3508 11.7091 20.5107 10.0013C18.5843 8.21289 18.843 8.50328 21.1633 5.41099C22.5765 3.52773 23.1415 2.37764 22.9646 1.88598C22.7964 1.41732 21.7571 1.54096 21.7571 1.54096L18.3011 1.56108C18.3011 1.56108 18.0452 1.52658 17.854 1.64015C17.6685 1.75228 17.5492 2.01105 17.5492 2.01105C17.5492 2.01105 17.0015 3.46879 16.2712 4.708C14.7315 7.32301 14.1147 7.46102 13.8632 7.29857C13.2781 6.92048 13.4247 5.77758 13.4247 4.96677C13.4247 2.43227 13.8085 1.37563 12.6757 1.10249C12.299 1.01192 12.023 0.951537 11.0613 0.941474C9.8278 0.928535 8.78266 0.945786 8.1918 1.23475C7.7979 1.42738 7.49456 1.85723 7.68001 1.88167C7.90859 1.91186 8.42613 2.02112 8.70071 2.39489C9.0558 2.87649 9.04286 3.96045 9.04286 3.96045C9.04286 3.96045 9.247 6.94348 8.56702 7.31438C8.0998 7.56884 7.46006 7.04986 6.08715 4.67638C5.38416 3.4616 4.85224 2.11744 4.85224 2.11744C4.85224 2.11744 4.75017 1.86729 4.5676 1.7336C4.3462 1.57115 4.03568 1.51939 4.03568 1.51939L0.749314 1.53952C0.749314 1.53952 0.256215 1.55389 0.0750765 1.7681C-0.0859354 1.9593 0.062138 2.3532 0.062138 2.3532C0.062138 2.3532 2.63545 8.37246 5.54804 11.4072C8.22055 14.189 11.2539 14.0064 11.2539 14.0064H12.6283C12.6283 14.0064 13.0437 13.9604 13.2551 13.7319C13.4506 13.522 13.4434 13.1281 13.4434 13.1281C13.4434 13.1281 13.4161 11.2836 14.2729 11.0119C15.1168 10.7445 16.2007 12.7945 17.3494 13.5838C18.2177 14.1804 18.8775 14.0496 18.8775 14.0496L21.9497 14.0064C21.9497 14.0064 23.5569 13.9072 22.795 12.6436Z" fill="#B2B6C4"/>
</svg>
