<svg width="13" height="13" viewBox="0 0 13 13" fill="none" xmlns="http://www.w3.org/2000/svg">
<path d="M12.6345 10.2016L10.6385 8.20541C10.241 7.80945 9.58263 7.82148 9.17122 8.23303L8.16566 9.23837C8.10213 9.20336 8.03637 9.16679 7.96723 9.12799C7.33223 8.77614 6.46312 8.29389 5.54856 7.37866C4.63129 6.4615 4.14859 5.59105 3.79567 4.95564C3.75843 4.88832 3.72274 4.82342 3.68751 4.76178L4.36239 4.0879L4.69419 3.7557C5.10622 3.34355 5.11759 2.68538 4.72096 2.28827L2.72501 0.291875C2.32839 -0.104677 1.66973 -0.0926471 1.25769 0.319501L0.695168 0.885257L0.71054 0.900517C0.521918 1.1412 0.364299 1.41878 0.247004 1.71813C0.138881 2.00307 0.0715632 2.27497 0.0407821 2.54744C-0.22277 4.73234 0.775667 6.72917 3.4853 9.43884C7.23083 13.1841 10.2492 12.9012 10.3794 12.8874C10.663 12.8535 10.9348 12.7857 11.2111 12.6784C11.5078 12.5625 11.7852 12.4051 12.0257 12.2169L12.038 12.2278L12.6079 11.6698C13.0191 11.2577 13.0309 10.5993 12.6345 10.2016Z" fill="#7AA95D"/>
</svg>
