<svg viewBox="0 0 61 18" fill="none" xmlns="http://www.w3.org/2000/svg">
<g opacity="0.7" clip-path="url(#clip0)">
<path d="M2.81942 14.0151V3.53364L0 3.53373V1.2041H8.22862V3.53373H5.4092V14.0152L2.81942 14.0151Z" fill="#7AA95D"/>
<path d="M12.8421 4.47168C10.0587 4.47168 7.79431 6.71382 7.79431 9.4697C7.79431 12.2256 10.0587 14.4675 12.8421 14.4675C15.6254 14.4675 17.8898 12.2256 17.8898 9.4697C17.8898 6.71382 15.6254 4.47168 12.8421 4.47168ZM12.8421 12.1379C11.3403 12.1379 10.123 10.9433 10.123 9.4696C10.123 7.99594 11.3403 6.80131 12.8421 6.80131C14.3438 6.80131 15.5611 7.99594 15.5611 9.4696C15.5611 10.9433 14.3438 12.1379 12.8421 12.1379Z" fill="#7AA95D"/>
<path d="M28.3169 6.0612C27.5536 5.07396 26.3504 4.55945 25.0874 4.55087C23.9547 4.54317 22.7176 5.03384 22.0761 5.94978V4.84551L19.7021 4.84542V18.0004H22.0761V13.2306V12.9739C22.7539 13.7496 24.0404 14.3786 25.0818 14.3786C26.2204 14.3786 27.4755 13.8413 28.224 12.8848C29.0221 11.9509 29.4231 10.7672 29.4368 9.54861C29.4509 8.29401 29.0858 7.06378 28.3169 6.0612ZM24.577 12.1308C23.2029 12.1308 22.089 10.942 22.089 9.47559C22.089 8.00915 23.2029 6.82038 24.577 6.82038C25.9511 6.82038 27.065 8.00915 27.065 9.47559C27.065 10.942 25.9511 12.1308 24.577 12.1308Z" fill="#7AA95D"/>
<path d="M34.7983 0.689453L32.2085 3.63122V14.0023H39.6553V11.6727H34.7983V0.689453Z" fill="#373C4A"/>
<path d="M47.9759 0.967827C47.2735 1.63937 47.1626 2.5718 47.2012 3.5333V4.88206H45.9718L45.5402 6.57634H47.2012V14.0025H49.5752V6.57634H51.922V4.88206H49.5752C49.5752 4.88206 49.5752 3.85042 49.5752 3.58889C49.5752 2.5489 50.1849 2.11796 50.8 2.01987C51.2942 1.94106 51.9061 2.08287 52.2431 2.22281V0.194129C51.7719 0.0598089 51.2826 -0.00351013 50.792 0.006338C49.7562 -0.0521596 48.7393 0.296131 47.9657 0.974337L47.9759 0.967827Z" fill="#373C4A"/>
<path d="M60.9865 8.96101C60.896 7.57877 60.8522 6.59013 60.0625 5.67741C59.2387 4.84748 58.0879 4.47914 56.9072 4.49151C55.5546 4.50569 54.4383 4.97565 53.6104 5.87274C52.8194 6.72981 52.5054 8.20493 52.5111 9.56115C52.5164 10.8475 52.7387 11.995 53.6606 12.9097C54.5718 13.8138 55.7842 14.302 57.0801 14.2799C58.2413 14.2601 59.393 14.0726 60.4321 13.5637V11.471C59.6261 11.972 58.6686 12.4353 57.7145 12.4453C55.7765 12.4656 54.8163 11.5843 54.709 10.2262L60.9987 10.1773C60.9987 10.1773 61.0064 9.26448 60.9865 8.96101ZM54.6769 8.42276C54.6693 7.72539 55.3485 6.24853 56.7353 6.234C58.1133 6.21956 58.9573 7.08406 58.9681 8.42276C58.9681 8.42276 55.5351 8.42379 54.6769 8.42276Z" fill="#373C4A"/>
<path d="M43.8398 4.63477H41.4658V14.0023H43.8398V4.63477Z" fill="#373C4A"/>
<path d="M42.6894 3.45049C43.4909 3.45049 44.1406 2.86859 44.1406 2.15078C44.1406 1.43297 43.4909 0.851074 42.6894 0.851074C41.8879 0.851074 41.2382 1.43297 41.2382 2.15078C41.2382 2.86859 41.8879 3.45049 42.6894 3.45049Z" fill="#373C4A"/>
</g>
<defs>
<clipPath id="clip0">
<rect width="61" height="18" fill="white"/>
</clipPath>
</defs>
</svg>
